<svg width="28" height="34" viewBox="0 0 28 34" fill="none" xmlns="http://www.w3.org/2000/svg">
<path fill-rule="evenodd" clip-rule="evenodd" d="M7.16462 2.75643C3.57731 4.28516 0.566423 5.5941 0.473857 5.66526C0.381291 5.73649 0.236766 5.89722 0.152763 6.02246L0 6.25023L0.00123255 10.7067C0.0025299 15.5442 0.0186171 15.8297 0.395822 17.7119C1.63583 23.8991 5.3301 29.2218 10.6208 32.444C12.0316 33.3033 13.5353 34 13.979 34C14.2752 34 14.9889 33.7172 15.9864 33.2044C18.3663 31.9812 20.675 30.182 22.3793 28.2226C25.386 24.7659 27.2053 20.7212 27.8351 16.0935C27.9249 15.4341 27.9485 14.5287 27.9718 10.8625L28 6.4289L27.8314 6.11176C27.7387 5.93742 27.5687 5.72872 27.4536 5.64805C27.3385 5.56739 24.3545 4.26995 20.8225 2.76493C15.5847 0.533093 14.3348 0.023803 14.0438 0.00274042C13.6985 -0.0221759 13.4778 0.0661275 7.16462 2.75643ZM19.6892 5.18434L25.3632 7.59724L25.3605 11.2141C25.3582 14.2805 25.3406 14.9575 25.2448 15.6616C24.9187 18.0572 24.3413 20.0218 23.3852 21.989C21.5297 25.8067 18.6069 28.8323 14.9224 30.7496L14.0015 31.2288L13.3599 30.9174C11.2835 29.9099 8.92577 28.0869 7.42733 26.3302C5.10592 23.6088 3.61513 20.5421 2.95296 17.1264C2.62493 15.4339 2.5947 14.9273 2.5947 11.1161V7.60056L8.23817 5.19298C11.3421 3.86883 13.9117 2.78228 13.9485 2.77849C13.9852 2.77463 16.5686 3.85727 19.6892 5.18434ZM18.5197 11.7797C18.3769 11.8423 17.2275 12.9693 15.4231 14.8157L12.5535 17.7523L11.1094 16.2786C10.183 15.3331 9.57879 14.7678 9.42408 14.7016C8.63776 14.3653 7.71852 14.9213 7.63776 15.782C7.57782 16.4213 7.6039 16.457 9.75387 18.6754C11.0548 20.0176 11.8306 20.7686 12.0005 20.8499C12.3176 21.0017 12.7345 21.0115 13.0567 20.8746C13.3862 20.7346 20.0265 13.9464 20.2079 13.5642C20.4404 13.074 20.3198 12.3862 19.9382 12.027C19.5793 11.6889 18.9692 11.5826 18.5197 11.7797Z" fill="#707070"/>
</svg>
