<svg width="37" height="34" viewBox="0 0 37 34" fill="none" xmlns="http://www.w3.org/2000/svg">
<path fill-rule="evenodd" clip-rule="evenodd" d="M15.5868 0.114854C15.4836 0.220117 15.4742 0.306258 15.4742 1.14854V2.06737H14.5735C13.7478 2.06737 13.6634 2.07696 13.5602 2.18222C13.457 2.28749 13.4476 2.37363 13.4476 3.21591V4.13474H12.5469C11.3617 4.13474 11.421 4.07932 11.421 5.18823C11.421 5.91336 11.4333 6.02339 11.5239 6.10706C11.6185 6.19441 12.1854 6.2021 18.5286 6.2021C24.7278 6.2021 25.4393 6.19292 25.5188 6.11189C25.591 6.03815 25.6072 5.86972 25.6072 5.19306C25.6072 4.07852 25.667 4.13474 24.4813 4.13474H23.5806V3.22676C23.5806 2.00282 23.6435 2.06737 22.4525 2.06737H21.554V1.14854C21.554 0.306258 21.5446 0.220117 21.4414 0.114854C21.3318 0.00304362 21.2538 0 18.5141 0C15.7744 0 15.6964 0.00304362 15.5868 0.114854ZM3.44473 6.24724C3.28457 6.35113 3.25822 6.64894 3.25946 8.34499C3.2611 10.5528 3.16196 10.3656 4.32912 10.3656C5.10773 10.3656 5.18823 10.3559 5.26125 10.2541C5.32238 10.1688 5.34113 9.9263 5.34107 9.2204L5.34096 8.29819L6.14952 8.31662C6.77772 8.33098 7.00374 8.31564 7.16288 8.24782L7.36774 8.16048V7.27151C7.36774 6.53995 7.35209 6.36663 7.2793 6.29232C7.2024 6.21393 6.9493 6.20222 5.35121 6.20297C4.33936 6.20348 3.48149 6.22335 3.44473 6.24724ZM29.7481 6.32976C29.6231 6.51175 29.6198 8.04746 29.7441 8.17426C29.8489 8.28124 30.487 8.34568 31.1727 8.31857L31.6871 8.29819V9.22247C31.6871 10.4272 31.6303 10.3656 32.7396 10.3656C33.8751 10.3656 33.7785 10.567 33.7581 8.24041C33.7452 6.77683 33.7257 6.37209 33.6646 6.29697C33.5956 6.21221 33.3869 6.2021 31.7115 6.2021C29.8369 6.2021 29.8356 6.20216 29.7481 6.32976ZM7.49339 10.3848C7.33751 10.4857 7.30677 10.8506 7.31831 12.4616C7.33154 14.2988 7.35316 14.4313 7.64989 14.4918C7.75015 14.5123 8.54931 14.529 9.42588 14.529C10.9824 14.529 11.276 14.5003 11.3767 14.3387C11.4001 14.3012 11.4197 13.8571 11.4202 13.3518L11.4212 12.4329H12.3414C13.0386 12.4329 13.2841 12.4138 13.3546 12.3541C13.4336 12.2872 13.4476 12.1438 13.4476 11.4011C13.4476 10.6271 13.4358 10.516 13.3446 10.4319C13.2517 10.3461 12.9662 10.3369 10.4032 10.3377C8.8421 10.3382 7.53263 10.3594 7.49339 10.3848ZM15.5674 10.4419C15.4845 10.5353 15.4742 10.7638 15.4742 12.5092V14.4716H14.5493C13.7837 14.4716 13.6093 14.4871 13.536 14.5618C13.4591 14.6404 13.4476 14.9084 13.4476 16.6292V18.6063H12.5274C11.7075 18.6063 11.5972 18.6177 11.5141 18.7113C11.4355 18.8 11.421 18.9615 11.421 19.745V20.6737H10.4961C9.73043 20.6737 9.55603 20.6892 9.48279 20.7639C9.41028 20.8379 9.39435 21.0087 9.39435 21.7114C9.39435 22.4922 9.40443 22.579 9.50694 22.6836C9.61475 22.7936 9.69401 22.7984 11.3787 22.7976C12.6831 22.797 13.1743 22.778 13.2787 22.7242L13.4194 22.6516L13.4348 21.677L13.4502 20.7024H14.3692C15.0653 20.7024 15.3106 20.6833 15.3811 20.6236C15.4644 20.5531 15.4742 20.3353 15.4742 18.5562L15.4742 16.5677H18.5142H21.554V18.5236C21.554 19.999 21.5713 20.503 21.6244 20.5751C21.6848 20.6572 21.8283 20.6717 22.6377 20.6772L23.5806 20.6838V21.6153C23.5806 22.3292 23.5993 22.5728 23.6605 22.6583C23.7368 22.7648 23.8242 22.7698 25.6007 22.7698C27.3104 22.7698 27.4691 22.7615 27.5615 22.6674C27.6438 22.5835 27.6654 22.4446 27.6811 21.8996C27.6916 21.5337 27.6842 21.1477 27.6648 21.042C27.5999 20.6892 27.5534 20.6737 26.5641 20.6737H25.6713L25.6533 19.7607C25.6293 18.5371 25.6966 18.6063 24.5311 18.6063H23.6412L23.625 16.6598C23.6098 14.8392 23.6019 14.7054 23.5015 14.5924C23.4012 14.4793 23.3374 14.4716 22.5057 14.4716H21.6171L21.5996 12.525C21.5833 10.7055 21.5752 10.5706 21.4749 10.4576C21.3686 10.3379 21.343 10.3368 18.5141 10.3368C15.8211 10.3368 15.6553 10.3428 15.5674 10.4419ZM23.6738 10.4419C23.5428 10.5895 23.535 12.1771 23.6646 12.3093C23.7745 12.4215 24.3325 12.4794 25.0394 12.4519L25.6072 12.4299V13.3536C25.6072 14.0606 25.626 14.3035 25.6871 14.3888C25.7634 14.4953 25.8508 14.5003 27.6342 14.5003H29.5014L29.6091 14.3647C29.7101 14.2376 29.7168 14.1158 29.7168 12.4079V10.5866L29.5865 10.4617C29.4562 10.3369 29.4547 10.3368 26.6116 10.3368C23.9272 10.3368 23.7617 10.3428 23.6738 10.4419ZM7.44683 18.7272C7.35187 18.8342 7.33959 18.9424 7.33959 19.6727C7.33959 20.73 7.31071 20.6942 8.18655 20.7226C8.54216 20.7342 8.92058 20.7268 9.02748 20.7064C9.37656 20.6396 9.39435 20.5881 9.39435 19.6448C9.39435 18.5464 9.45341 18.6063 8.37125 18.6063C7.612 18.6063 7.54648 18.6149 7.44683 18.7272ZM27.7215 18.734C27.5944 18.9189 27.5933 20.4518 27.7201 20.5812C27.8481 20.7118 28.1214 20.7459 28.8487 20.7224C29.7416 20.6935 29.731 20.7073 29.7067 19.6023C29.6836 18.5553 29.743 18.6106 28.6363 18.6082C27.8443 18.6064 27.8054 18.6118 27.7215 18.734ZM31.3869 27.0864C31.3662 27.1074 31.3493 28.6269 31.3493 30.4631C31.3493 32.983 31.3659 33.8184 31.4169 33.8704C31.4945 33.9496 32.4039 33.9655 32.5211 33.8896C32.5619 33.8632 32.6005 33.8055 32.6068 33.7613C32.6238 33.6433 32.6812 33.6391 32.8756 33.7416C33.3681 34.0015 34.0887 34.0703 34.6777 33.9138C35.0947 33.803 35.637 33.4659 35.9133 33.1457C36.037 33.0022 36.2196 32.7151 36.3191 32.5076C36.4918 32.1469 36.4998 32.1001 36.5 31.4412C36.5003 30.7668 36.4959 30.7429 36.2966 30.3214C35.9382 29.5634 35.2746 29.0442 34.4578 28.8826C33.8828 28.7689 33.4372 28.8494 32.6722 29.2055C32.6356 29.2226 32.6221 28.9348 32.6337 28.384C32.6434 27.9177 32.6355 27.4263 32.6162 27.2921L32.5809 27.0481H32.0026C31.6846 27.0481 31.4075 27.0653 31.3869 27.0864ZM1.74952 28.9401C1.17937 29.0985 0.769715 29.4278 0.587095 29.8745C0.459812 30.1858 0.473999 30.7477 0.616818 31.0486C0.836931 31.5124 1.19131 31.7154 2.26254 31.9913C3.04757 32.1935 3.20193 32.2786 3.20193 32.5089C3.20193 32.7348 3.0027 32.8547 2.56788 32.8903C2.24407 32.9168 1.2248 32.8345 0.924244 32.7575C0.689213 32.6973 0.605841 32.8639 0.624193 33.3565C0.646823 33.964 0.650877 33.9658 2.07603 33.967C3.29977 33.9681 3.49038 33.9273 3.99811 33.5556C4.44807 33.2262 4.63998 32.6085 4.47368 32.025C4.30773 31.4427 3.91282 31.1768 2.8001 30.8984C2.41735 30.8026 2.04085 30.6762 1.96345 30.6175C1.70967 30.4252 1.76168 30.1454 2.07373 30.0242C2.15243 29.9936 2.6253 29.971 3.12469 29.974C4.16468 29.9802 4.10039 30.018 4.10186 29.3992C4.1031 28.8923 4.10068 28.891 3.06119 28.8562C2.27746 28.8299 2.10711 28.8408 1.74952 28.9401ZM13.2784 28.8819C13.2007 28.9061 13.0563 28.9684 12.9574 29.0206C12.7966 29.1054 12.7725 29.1061 12.7292 29.0272C12.6895 28.9548 12.5749 28.9419 12.0931 28.9554L11.5054 28.9719L11.4907 31.42L11.4761 33.8681L11.6033 33.9029C11.8354 33.9664 12.6335 33.9428 12.7045 33.8704C12.7536 33.8203 12.772 33.3914 12.772 32.301V30.8005L12.9426 30.5378C13.1299 30.2493 13.4192 30.0917 13.7611 30.0917C14.0114 30.0917 14.2101 30.1972 14.4609 30.4632L14.6579 30.6722L14.6737 32.2339C14.6876 33.6104 14.7006 33.8042 14.7829 33.8675C14.8974 33.9554 15.7166 33.9646 15.872 33.8799C15.9752 33.8235 15.9808 33.7454 15.9808 32.3849C15.9808 30.6286 16.028 30.4545 16.5719 30.1997C17.0302 29.985 17.5453 30.1322 17.8208 30.5566L17.9793 30.8008L17.9967 32.3383L18.0141 33.8758L18.2657 33.9143C18.4578 33.9437 18.9533 33.9285 19.235 33.8846C19.2444 33.8831 19.2444 33.113 19.235 32.1734L19.2178 30.465L19.0628 30.1491C18.4868 28.9754 17.1045 28.5004 15.9534 29.0808C15.7326 29.1921 15.506 29.335 15.4498 29.3983C15.3482 29.5129 15.3465 29.5125 15.1154 29.3221C14.8317 29.0883 14.7004 29.017 14.3593 28.9114C14.0786 28.8245 13.5131 28.8091 13.2784 28.8819ZM21.8264 28.8828C21.4178 28.9597 20.8991 29.2232 20.7036 29.453C20.2402 29.9981 20.2058 30.7822 20.6234 31.28C20.8692 31.573 21.2828 31.7775 22.0017 31.9613C22.9664 32.2082 23.1403 32.3148 23.0503 32.6042C22.9626 32.8861 22.3206 32.9685 21.3014 32.8287C20.9184 32.7762 20.6469 32.7635 20.5883 32.7955C20.5164 32.8347 20.4886 32.9474 20.4728 33.264C20.4482 33.7538 20.483 33.8548 20.6938 33.9053C21.0417 33.9886 22.6857 34.0137 23.0078 33.9406C23.8757 33.7438 24.3688 33.216 24.3688 32.4839C24.3688 31.9683 24.3132 31.8098 24.0323 31.5232C23.7377 31.2227 23.3948 31.0701 22.5973 30.8844C21.9033 30.7228 21.6666 30.5962 21.6666 30.3866C21.6666 30.2947 21.7179 30.1769 21.7849 30.115C21.889 30.0187 22.0227 30.0021 22.8968 29.9768L23.8902 29.9481L23.9065 29.4832C23.9186 29.1339 23.9026 29.0013 23.842 28.95C23.741 28.8644 22.1974 28.813 21.8264 28.8828ZM5.77454 28.9796C5.75293 29.0017 5.73519 29.722 5.73519 30.5804C5.73519 31.9792 5.74662 32.1749 5.84519 32.4672C6.04999 33.0745 6.45441 33.5179 7.07354 33.8139C7.36217 33.9519 7.4608 33.968 8.01631 33.968C8.60105 33.968 8.65785 33.9574 9.00417 33.7835C9.48335 33.5428 9.87505 33.1444 10.0931 32.6759L10.2669 32.3026L10.2844 30.7556C10.2941 29.9047 10.2872 29.1489 10.2693 29.0759C10.2378 28.9479 10.2159 28.9432 9.65263 28.9432C9.17204 28.9432 9.06261 28.9592 9.03446 29.034C9.01566 29.084 9.00029 29.7713 9.00029 30.5615C9.00029 32.2144 8.98284 32.2933 8.55702 32.5688C8.04682 32.8989 7.39082 32.7278 7.09589 32.1878C7.01691 32.0431 6.99732 31.7718 6.97368 30.4937L6.94553 28.9719L6.37971 28.9556C6.06857 28.9467 5.79622 28.9575 5.77454 28.9796ZM25.6304 29.0088C25.5605 29.1242 25.5367 31.4223 25.5999 31.9497C25.6638 32.4821 25.7887 32.7914 26.0961 33.1781C26.7757 34.0331 28.1009 34.2568 29.0666 33.6795C29.4293 33.4627 29.8556 32.9618 30.0066 32.5752C30.1273 32.2663 30.1368 32.1484 30.1555 30.7301C30.1665 29.8967 30.1603 29.1529 30.1416 29.0771C30.1082 28.941 30.1001 28.9395 29.5041 28.9556L28.9005 28.9719L28.8723 30.5224C28.8456 31.9937 28.8379 32.0833 28.7203 32.2761C28.3426 32.8956 27.3681 32.8838 26.9851 32.255C26.8839 32.089 26.8717 31.9359 26.8459 30.5224L26.8176 28.9719L26.2451 28.9556C25.8426 28.9441 25.66 28.9599 25.6304 29.0088ZM34.4048 30.21C34.8913 30.3478 35.2552 30.8722 35.259 31.4412C35.268 32.762 33.5088 33.1703 32.9115 31.986C32.661 31.4895 32.7258 31.0039 33.0987 30.5814C33.439 30.1958 33.896 30.0658 34.4048 30.21Z" fill="#707070"/>
</svg>
