<svg width="34" height="34" viewBox="0 0 34 34" fill="none" xmlns="http://www.w3.org/2000/svg">
<path fill-rule="evenodd" clip-rule="evenodd" d="M16.6606 0.131991C16.5806 0.206513 16.4115 0.600869 16.281 1.01747L16.0457 1.76864H15.2038C14.4046 1.76864 14.3532 1.77742 14.1881 1.94254C13.7997 2.33067 13.9904 2.66793 14.9756 3.33572C15.2272 3.50622 15.4212 3.67765 15.4067 3.71669C15.1305 4.45531 14.9216 5.24573 14.961 5.40278C15.007 5.58603 15.3153 5.80641 15.5258 5.80641C15.5815 5.80641 15.939 5.58398 16.3203 5.3121L17.0135 4.81779L17.445 5.13501C18.228 5.71043 18.4732 5.83595 18.6741 5.76433C18.7732 5.72906 18.9202 5.61182 19.0006 5.50386L19.1467 5.30764L18.8766 4.4874C18.7281 4.03624 18.6337 3.64259 18.6669 3.61255C18.7 3.58259 18.9822 3.37411 19.2941 3.14934C19.6059 2.92457 19.901 2.69116 19.9496 2.63074C20.0941 2.45144 20.0545 2.13267 19.8642 1.94254C19.699 1.77728 19.6482 1.76864 18.8413 1.76864H17.9922L17.7602 1.04254C17.6326 0.643159 17.4655 0.244694 17.3889 0.157068C17.2151 -0.0416334 16.8602 -0.0538173 16.6606 0.131991ZM8.47995 2.28448C8.21304 2.48934 8.19362 2.64972 8.34784 3.37723C8.42871 3.75876 8.50971 4.1228 8.52793 4.1862C8.55245 4.27149 8.37562 4.40736 7.84812 4.70849C7.11148 5.12906 6.9978 5.24247 6.9978 5.55706C6.9978 5.89071 7.26067 6.06292 7.85224 6.11689C8.14238 6.14332 8.51106 6.18292 8.67144 6.2048L8.96315 6.24469L9.12694 7.0249C9.31744 7.93212 9.42169 8.10157 9.78966 8.10157C10.1366 8.10157 10.2516 7.96577 10.6152 7.12698L10.9179 6.42865L11.2435 6.46946C11.4225 6.49191 11.8135 6.53137 12.1123 6.55722C12.6318 6.60207 12.6635 6.59611 12.8387 6.421C13.1669 6.09295 13.0991 5.92025 12.3744 5.23801L11.7269 4.62844L12.0233 3.9705C12.4097 3.11279 12.4328 2.98309 12.2427 2.74153C11.9999 2.4331 11.711 2.47695 10.9197 2.94242L10.2491 3.33692L9.9168 3.03458C9.7341 2.86833 9.56868 2.71461 9.54919 2.69307C9.15281 2.25466 8.72956 2.09293 8.47995 2.28448ZM24.8848 2.35015C24.7723 2.43621 24.4773 2.69038 24.2292 2.91501L23.7779 3.32339L23.4496 3.13744C23.2689 3.03515 22.9749 2.86068 22.796 2.74967C22.3926 2.49926 22.0192 2.48148 21.8128 2.70292C21.5992 2.93201 21.6329 3.15976 21.9947 3.93352L22.3209 4.63156L22.0124 4.91144C21.0796 5.75739 21.0304 5.81427 21.0304 6.04889C21.0304 6.20055 21.0895 6.33302 21.2057 6.44218C21.3905 6.61567 21.5767 6.61914 22.7745 6.4713C23.1256 6.42795 23.1388 6.43276 23.2079 6.63005C23.247 6.74197 23.3983 7.09404 23.5441 7.41238C23.8483 8.07699 24.0527 8.23042 24.4272 8.07536C24.679 7.97108 24.6922 7.9414 24.8957 7.02284C24.9847 6.62041 25.0716 6.2772 25.0887 6.26013C25.1058 6.24299 25.4963 6.18561 25.9565 6.13248C26.6921 6.04754 26.8087 6.0156 26.9222 5.86804C27.2207 5.48013 27.0539 5.21052 26.2271 4.74419C25.8556 4.53472 25.5379 4.32738 25.521 4.28353C25.5042 4.23968 25.5553 3.92559 25.6346 3.58556C25.8316 2.74124 25.8241 2.52292 25.5921 2.34051C25.352 2.15166 25.1403 2.15456 24.8848 2.35015ZM5.06158 7.2763C4.97023 7.42244 4.77569 7.75708 4.62941 8.0201C4.32331 8.57016 4.34039 8.56527 3.46746 8.35609C2.59673 8.14747 2.40934 8.18395 2.25392 8.59255C2.15102 8.86322 2.23592 9.02459 2.81388 9.65618C3.12394 9.99514 3.30715 10.2518 3.28327 10.314C3.26172 10.37 3.08412 10.6867 2.88851 11.0177C2.50141 11.6727 2.45435 11.9292 2.67738 12.1685C2.89021 12.3968 3.20509 12.364 3.90623 12.0402C4.24372 11.8843 4.56038 11.7568 4.60985 11.7568C4.65931 11.7568 4.9479 12.0278 5.25117 12.3589C5.73111 12.8831 5.83295 12.9611 6.03791 12.9611C6.30737 12.9611 6.564 12.7791 6.58724 12.5715C6.59596 12.4935 6.57335 12.111 6.53692 11.7214C6.50042 11.3318 6.46967 10.988 6.46846 10.9574C6.46726 10.9268 6.78519 10.7591 7.17498 10.5847C7.937 10.2439 8.13175 10.0797 8.13175 9.77788C8.13175 9.4431 7.87442 9.28768 7.02552 9.10995L6.25365 8.94837L6.20468 8.49309C6.08802 7.40969 6.06123 7.27878 5.92891 7.14653C5.84039 7.05805 5.69447 7.01066 5.51042 7.01066C5.26059 7.01066 5.2085 7.04155 5.06158 7.2763ZM28.0853 7.14887C27.9996 7.24358 27.9402 7.48358 27.8967 7.91038C27.7844 9.01106 27.8005 8.97011 27.4605 9.02416C26.7585 9.1358 26.1802 9.30135 26.055 9.42652C25.8664 9.61502 25.8791 9.99507 26.0801 10.1739C26.1678 10.252 26.5221 10.4395 26.8675 10.5906C27.213 10.7417 27.5109 10.9053 27.5296 10.9542C27.5484 11.0031 27.527 11.3847 27.482 11.8022C27.4056 12.5114 27.4091 12.5734 27.5357 12.7435C27.634 12.8757 27.7478 12.9315 27.9507 12.9467C28.2201 12.967 28.2502 12.9458 28.7817 12.3623C29.085 12.0293 29.3741 11.7568 29.4242 11.7568C29.4743 11.7568 29.7913 11.8843 30.1288 12.0402C30.8631 12.3792 31.1635 12.4026 31.3726 12.1369C31.4534 12.0342 31.5191 11.8828 31.5187 11.8004C31.5183 11.718 31.3429 11.3521 31.1289 10.9873C30.9149 10.6226 30.7399 10.2917 30.7399 10.2523C30.7399 10.2128 30.9809 9.91049 31.2753 9.58053C31.7555 9.04251 31.8085 8.95467 31.7892 8.72877C31.774 8.55189 31.7097 8.43394 31.5731 8.33243L31.3786 8.18785L30.56 8.3541C30.0732 8.45292 29.7162 8.4943 29.6793 8.45618C29.6451 8.42091 29.4521 8.10511 29.2502 7.75446C29.0485 7.40381 28.8466 7.09347 28.8017 7.06485C28.6356 6.95902 28.2122 7.00868 28.0853 7.14887ZM2.17851 14.003C1.85591 14.1216 1.82415 14.2223 1.82415 15.1268V15.9954L1.13315 16.2189C0.23145 16.5106 0.148318 16.5548 0.048459 16.7958C-0.0169558 16.9536 -0.0163179 17.0457 0.0514356 17.2092C0.140947 17.4252 0.304307 17.507 1.25718 17.8132C1.84556 18.0023 1.83273 17.9777 1.81388 18.8846C1.79425 19.8262 1.86448 19.974 2.33124 19.974C2.65336 19.974 2.72728 19.909 3.24216 19.1718C3.45109 18.8728 3.66654 18.6281 3.72097 18.6281C3.7754 18.6281 4.09099 18.7238 4.42232 18.8406C5.18448 19.1095 5.45039 19.1151 5.64606 18.8665C5.88519 18.5627 5.82941 18.3654 5.30113 17.6473L4.8141 16.9852L5.23238 16.4294C5.73409 15.7625 5.82502 15.5778 5.7664 15.3443C5.65145 14.8863 5.33976 14.8432 4.41098 15.157C4.06505 15.2739 3.74811 15.3691 3.70665 15.3684C3.66526 15.3678 3.42877 15.0845 3.18114 14.7389C2.68447 14.0457 2.47688 13.8934 2.17851 14.003ZM31.4764 14.0222C31.3943 14.0553 31.1144 14.372 30.8544 14.726C30.5945 15.08 30.3428 15.3685 30.2951 15.3672C30.2474 15.3658 29.9373 15.2704 29.6059 15.1551C28.8942 14.9075 28.5969 14.8905 28.4011 15.0862C28.1397 15.3475 28.213 15.6329 28.72 16.3286C28.9734 16.6762 29.1807 16.9779 29.1807 16.9988C29.1807 17.0198 28.9734 17.3214 28.72 17.6691C28.213 18.3648 28.1397 18.6502 28.4011 18.9115C28.5942 19.1044 28.8324 19.09 29.5705 18.8406C29.9164 18.7238 30.2493 18.6298 30.3103 18.6319C30.3711 18.634 30.6288 18.9289 30.8829 19.2872C31.3286 19.9158 31.3552 19.9394 31.6421 19.9603C32.1157 19.9948 32.1856 19.8598 32.2282 18.8298L32.2636 17.9727L33.0013 17.7345C33.8679 17.4547 34 17.3574 34 16.9988C34 16.6385 33.858 16.5337 32.9965 16.2582L32.2636 16.0239L32.2461 15.254C32.2234 14.2499 32.2029 14.1771 31.9091 14.0544C31.7753 13.9985 31.6568 13.9549 31.6458 13.9573C31.6348 13.9597 31.5586 13.9889 31.4764 14.0222ZM9.88031 14.9704C9.38569 15.1102 8.99419 15.4179 8.74154 15.8654C8.53417 16.2327 8.52155 16.2978 8.52155 16.9988C8.52155 17.6984 8.53459 17.7658 8.74012 18.1322C9.17123 18.9007 9.9307 19.2071 11.0592 19.0677C11.5415 19.0082 11.783 18.936 12.1223 18.75L12.5612 18.5094L12.5811 17.6105L12.6009 16.7114L11.6243 16.7312L10.6477 16.7509V17.1405V17.5301L11.0552 17.5514C11.4535 17.5721 11.4627 17.5773 11.4627 17.7796C11.4627 17.9697 11.4308 17.9959 11.0701 18.1007C10.732 18.199 10.6362 18.2017 10.3791 18.1203C10.1357 18.0433 10.0514 17.9678 9.92127 17.7099C9.71822 17.3074 9.71064 16.7288 9.90284 16.3055C10.1504 15.7604 10.8357 15.6407 11.204 16.0782L11.379 16.2861L11.9301 16.1807C12.2332 16.1227 12.4951 16.0614 12.512 16.0445C12.529 16.0276 12.5226 15.9331 12.4979 15.8346C12.4348 15.5836 12.076 15.1952 11.7756 15.0526C11.4316 14.8895 10.3348 14.8419 9.88031 14.9704ZM13.3751 14.9731C13.3745 14.9963 13.3734 15.9159 13.3727 17.0166L13.3715 19.0177L14.3484 19.0401C15.8782 19.0751 16.4343 18.8918 16.8262 18.2234C16.9995 17.9279 17.0271 17.7986 17.0501 17.1765C17.0805 16.3563 17.0041 16.003 16.7084 15.5949C16.323 15.0631 16.0778 14.9877 14.6343 14.9573C13.9424 14.9427 13.3758 14.9498 13.3751 14.9731ZM17.6995 16.9933V19.0531H18.3373H18.9752V18.3093V17.5655L19.3118 17.5651C19.8389 17.5645 20.481 17.4381 20.6757 17.2966C21.1467 16.9545 21.314 16.0844 21.0115 15.5506C20.7204 15.0368 20.5412 14.9831 19.0283 14.9567L17.6995 14.9335V16.9933ZM21.81 16.9915V19.0531H22.4479H23.0857V18.2385C23.0857 17.4312 23.0872 17.4239 23.2519 17.4239C23.4706 17.4239 23.5643 17.5407 24.004 18.3625L24.3737 19.0531H25.0762C25.5179 19.0531 25.7789 19.0257 25.7789 18.9791C25.7789 18.8078 25.1138 17.6539 24.896 17.4472L24.6593 17.2226L24.869 17.1358C24.9844 17.088 25.164 16.9372 25.2682 16.8007C25.5206 16.47 25.5427 15.775 25.3107 15.4636C24.982 15.0221 24.8206 14.9824 23.2452 14.9549L21.81 14.93V16.9915ZM19.8079 15.9839C19.91 16.1236 19.9216 16.3537 19.8334 16.4928C19.768 16.596 19.1423 16.7396 19.0382 16.6752C19.0035 16.6538 18.9752 16.4425 18.9752 16.2056V15.7748L19.3472 15.8189C19.576 15.8459 19.7534 15.9096 19.8079 15.9839ZM24.1219 15.9714C24.2555 16.1539 24.2448 16.2654 24.0779 16.4321C23.9677 16.5424 23.8417 16.5738 23.511 16.5738H23.0857V16.176V15.7781L23.555 15.808C23.9098 15.8305 24.048 15.8704 24.1219 15.9714ZM15.3949 16.0067C15.6793 16.1147 15.8045 16.496 15.7742 17.1615C15.7511 17.6707 15.7311 17.7362 15.5508 17.8912C15.3995 18.0213 15.2702 18.0614 15.0024 18.0614H14.652V16.9988V15.9363H14.9309C15.0842 15.9363 15.2931 15.9679 15.3949 16.0067ZM5.48589 21.3731C5.31162 21.5582 5.05825 21.835 4.92289 21.9882L4.67661 22.2669L4.33118 22.1373C4.14117 22.066 3.83529 21.9326 3.65145 21.8409C3.23663 21.634 2.86611 21.6244 2.67462 21.8158C2.49304 21.9973 2.49304 22.3631 2.67462 22.5951C2.75088 22.6925 2.81395 22.7945 2.8148 22.8217C2.81565 22.849 2.92791 23.0562 3.0642 23.2822C3.20056 23.5082 3.31218 23.7127 3.31225 23.7367C3.31239 23.7607 3.08638 24.0317 2.81005 24.3388C2.23138 24.9821 2.15562 25.1292 2.25555 25.4158C2.38652 25.7913 2.57122 25.8263 3.45059 25.6419C3.87894 25.552 4.25386 25.4789 4.28383 25.4793C4.31374 25.4797 4.51672 25.7901 4.73493 26.169C4.95315 26.5479 5.17682 26.8865 5.23196 26.9214C5.40715 27.0322 5.78596 26.994 5.92891 26.8512C6.01261 26.7675 6.08108 26.5703 6.10723 26.3376C6.13062 26.1299 6.17307 25.7527 6.2017 25.4994L6.25365 25.039L7.03062 24.8777C7.89192 24.699 8.13175 24.5533 8.13175 24.2087C8.13175 23.9189 7.90695 23.7312 7.17498 23.4098C6.82417 23.2558 6.51949 23.1053 6.49787 23.0755C6.47633 23.0457 6.48157 22.8377 6.50964 22.6134C6.5377 22.389 6.56329 21.9952 6.56662 21.7383C6.57364 21.19 6.46244 21.0366 6.05804 21.0366C5.84507 21.0366 5.75003 21.0925 5.48589 21.3731ZM27.5485 21.2314C27.4193 21.3948 27.4014 21.4834 27.4377 21.7804C27.4615 21.9752 27.4997 22.3577 27.5226 22.6305L27.5642 23.1263L26.8706 23.4055C26.4891 23.5591 26.1193 23.7424 26.0488 23.8128C25.8792 23.9824 25.8812 24.3975 26.0524 24.5686C26.172 24.6881 26.8084 24.869 27.4953 24.9788C27.795 25.0267 27.786 25.0018 27.8967 26.0873C27.9714 26.8204 28.0777 26.987 28.4706 26.987C28.789 26.987 28.9069 26.8668 29.3296 26.1108C29.5011 25.8042 29.6818 25.5376 29.7312 25.5183C29.7806 25.4991 30.1695 25.5555 30.5955 25.6437C31.3246 25.7947 31.3806 25.7972 31.55 25.6863C31.7496 25.5555 31.8411 25.2997 31.775 25.0567C31.7512 24.969 31.5095 24.6582 31.2378 24.366C30.9663 24.0738 30.7432 23.7974 30.7419 23.7518C30.7408 23.7062 30.9153 23.3652 31.1297 22.994C31.3441 22.6229 31.5195 22.2581 31.5195 22.1833C31.5195 22.1086 31.4534 21.9635 31.3726 21.8608C31.1649 21.5969 30.8828 21.6187 30.1191 21.9575C29.7679 22.1134 29.4479 22.2409 29.4081 22.2409C29.3683 22.2409 29.0896 21.9699 28.7889 21.6387C28.2854 21.0844 28.2205 21.0366 27.9723 21.0366C27.7628 21.0366 27.6683 21.08 27.5485 21.2314ZM9.57152 25.9249C9.35692 26.0114 9.30525 26.1354 9.12488 26.9966L8.96719 27.75L8.63806 27.7917C8.45706 27.8146 8.0871 27.8552 7.81602 27.8819C7.25075 27.9376 6.9978 28.1156 6.9978 28.4578C6.9978 28.7484 7.09929 28.8477 7.81283 29.2551C8.16365 29.4554 8.473 29.6406 8.50022 29.6668C8.5275 29.6929 8.47484 30.0613 8.38321 30.4853C8.19256 31.3676 8.22488 31.5957 8.56017 31.7345C8.8404 31.8505 9.03636 31.7854 9.37201 31.4648C9.52793 31.3158 9.78916 31.0741 9.95259 30.9277L10.2497 30.6615L10.9327 31.0557C11.7265 31.5138 12.0051 31.5581 12.2372 31.2632C12.3179 31.1605 12.3841 31.0197 12.3841 30.9502C12.3841 30.8808 12.2359 30.4964 12.0548 30.0962L11.7255 29.3685L12.3832 28.7476C13.0091 28.1568 13.0387 28.1154 12.9958 27.8933C12.9168 27.4854 12.719 27.388 12.0772 27.4412C11.772 27.4665 11.3864 27.5058 11.2204 27.5285L10.9183 27.5699L10.6098 26.8478C10.2215 25.9388 10.0081 25.7491 9.57152 25.9249ZM23.9601 25.9373C23.8219 26.0041 23.4129 26.7819 23.2081 27.3672C23.1411 27.5584 23.1192 27.5678 22.8335 27.5287C22.6666 27.5058 22.2714 27.4656 21.9553 27.4393C21.4176 27.3944 21.3693 27.4019 21.2055 27.5557C21.0932 27.6611 21.0303 27.7983 21.03 27.938C21.0297 28.1207 21.1331 28.2539 21.6708 28.7633L22.3121 29.3707L21.9902 30.0822C21.6248 30.8896 21.6003 31.078 21.8323 31.2958C22.047 31.4974 22.3803 31.4935 22.7151 31.2856C22.8604 31.1953 23.1601 31.0191 23.381 30.8942L23.7825 30.6671L24.196 31.0432C25.1154 31.8795 25.2405 31.9336 25.601 31.6502C25.7862 31.5047 25.7942 31.4743 25.7528 31.078C25.7287 30.8478 25.659 30.4669 25.598 30.2313C25.5369 29.9957 25.5016 29.7647 25.5195 29.718C25.5375 29.6713 25.829 29.4778 26.1674 29.2879C27.0341 28.8018 27.2314 28.4961 26.9237 28.1163C26.8109 27.977 26.6772 27.9416 25.9537 27.8591C25.4922 27.8065 25.1003 27.7492 25.0829 27.7318C25.0655 27.7144 24.983 27.3724 24.8997 26.9717C24.7329 26.1705 24.6832 26.0546 24.4547 25.9348C24.2699 25.8379 24.1647 25.8384 23.9601 25.9373ZM15.2201 28.2824C14.8879 28.4504 14.8784 28.6806 15.1676 29.5558C15.3637 30.1489 15.4074 30.3598 15.3418 30.3965C15.2937 30.4235 14.9833 30.6477 14.652 30.8946C14.0855 31.3168 14.0483 31.3607 14.0284 31.6306C13.993 32.1128 14.1429 32.1891 15.1806 32.2169L16.0491 32.2402L16.2811 32.9805C16.5228 33.7518 16.7026 34 17.0199 34C17.3292 34 17.4689 33.8061 17.7348 33.0084L17.9946 32.229L18.7861 32.228C19.6575 32.2268 19.8917 32.1566 19.9941 31.8656C20.1161 31.5187 19.9999 31.3409 19.3471 30.8763C19.0061 30.6336 18.6996 30.4111 18.666 30.3819C18.6324 30.3528 18.7238 29.9723 18.8691 29.5364C19.1589 28.6673 19.151 28.5222 18.8017 28.2935C18.5789 28.1475 18.3332 28.1995 17.9871 28.4656C17.8484 28.5724 17.5721 28.7767 17.3732 28.9198L17.0115 29.1798L16.4431 28.7636C15.5941 28.142 15.5398 28.1207 15.2201 28.2824Z" fill="#707070"/>
</svg>
