<svg width="16" height="16" viewBox="0 0 16 16" fill="none" xmlns="http://www.w3.org/2000/svg">
<path fill-rule="evenodd" clip-rule="evenodd" d="M5.59351 0.162255C4.47764 0.53688 3.60211 1.03776 2.71851 1.80697C1.24895 3.08629 0.297481 4.88541 0.0420434 6.86797C-0.0209254 7.35676 -0.0114879 8.53769 0.0591371 9.0086C0.129481 9.47747 0.318075 10.2281 0.46795 10.6356C0.639293 11.1017 1.04354 11.9005 1.31286 12.3055C2.12754 13.5303 3.20157 14.479 4.4957 15.1167C5.30482 15.5154 6.0017 15.7373 6.87476 15.8744C7.44389 15.9638 8.6122 15.9711 9.16695 15.8888C12.1685 15.4434 14.6135 13.4976 15.66 10.7212C15.8502 10.2168 15.9919 9.68019 15.9749 9.52847C15.9482 9.28841 15.7696 9.11822 15.519 9.09413C15.3331 9.07625 15.2119 9.13022 14.9137 9.36366C14.2759 9.86297 13.4267 10.2769 12.656 10.4642C11.9925 10.6254 11.0478 10.6699 10.3989 10.5704C9.06079 10.3654 7.92811 9.80247 7.00582 8.88419C6.10536 7.98763 5.52967 6.86969 5.30776 5.58672C5.24176 5.20516 5.21804 4.37504 5.26251 4.0041C5.40536 2.81316 5.76392 1.89957 6.43726 1.01097C6.62236 0.766693 6.62476 0.76088 6.62476 0.557943C6.62476 0.30988 6.54498 0.173849 6.34661 0.0837555C6.15942 -0.00124453 6.04507 0.0106617 5.59351 0.162255Z" fill="#C8C8C8"/>
</svg>
