<svg width="16" height="16" viewBox="0 0 16 16" fill="none" xmlns="http://www.w3.org/2000/svg">
<g clip-path="url(#clip0_396_17398)">
<path fill-rule="evenodd" clip-rule="evenodd" d="M7.78626 0.0472093C7.72985 0.0750218 7.65816 0.134459 7.62698 0.179303C7.56482 0.268647 6.49323 2.59443 6.5076 2.6088C6.51248 2.61371 6.59323 2.59771 6.68704 2.57327C7.45223 2.37402 8.54416 2.37402 9.30935 2.57327C9.40316 2.59771 9.48391 2.61371 9.48879 2.6088C9.50323 2.5944 8.43145 0.268459 8.36904 0.178772C8.25098 0.00911553 7.98526 -0.0508845 7.78626 0.0472093ZM2.51382 2.23096C2.36132 2.2834 2.2612 2.39337 2.2172 2.5568C2.17748 2.70427 2.15863 2.64383 2.70013 4.10462C2.91673 4.68899 3.10101 5.18709 3.10963 5.21146C3.11916 5.23846 3.19601 5.14665 3.30585 4.97709C3.74548 4.29846 4.4102 3.64221 5.03229 3.27265C5.15288 3.20099 5.24026 3.1324 5.22645 3.12021C5.21263 3.10802 4.94819 3.00552 4.63882 2.8924C4.32945 2.77927 3.79507 2.58265 3.45132 2.45546C2.71823 2.18421 2.67785 2.17455 2.51382 2.23096ZM13.1842 2.22918C13.0704 2.25946 12.3055 2.54018 10.9257 3.05808L10.7439 3.12637L11.0194 3.30508C11.6824 3.73496 12.2362 4.28749 12.674 4.95574C12.8253 5.18662 12.8701 5.23621 12.8878 5.19193C12.9 5.16109 13.1066 4.60852 13.3468 3.96399C13.6525 3.14371 13.7837 2.7523 13.7841 2.6594C13.7854 2.3458 13.5042 2.14412 13.1842 2.22918ZM7.48257 3.35849C6.63226 3.48724 6.00395 3.7249 5.35757 4.16218C4.99257 4.40915 4.4121 4.98962 4.16513 5.35462C3.8076 5.88309 3.56298 6.45265 3.42945 7.06749C3.32923 7.52902 3.32923 8.46146 3.42945 8.92299C3.63001 9.84649 4.04423 10.605 4.71588 11.2786C5.6547 12.2202 6.85001 12.6918 8.17007 12.6414C9.39023 12.5949 10.4107 12.1474 11.2805 11.2776C12.2269 10.3312 12.6949 9.14593 12.6444 7.82337C12.5978 6.60321 12.1504 5.58277 11.2805 4.71293C10.6134 4.0458 9.84466 3.6244 8.94191 3.43093C8.64666 3.36765 7.72441 3.32187 7.48257 3.35849ZM1.40445 7.0414C0.625945 7.40021 0.199008 7.61405 0.132539 7.67837C-0.0441797 7.84946 -0.0441797 8.14105 0.132539 8.31209C0.199539 8.37693 0.624195 8.58824 1.41863 8.95205C2.07095 9.2508 2.61035 9.49524 2.61729 9.49524C2.6242 9.49524 2.62141 9.47318 2.61107 9.44621C2.60073 9.41924 2.56395 9.25834 2.52938 9.08865C2.43285 8.61493 2.39748 8.0604 2.43463 7.6028C2.46282 7.25562 2.5586 6.68099 2.61107 6.54427C2.62141 6.5173 2.61782 6.49658 2.6031 6.49824C2.58838 6.4999 2.04898 6.7443 1.40445 7.0414ZM13.3853 6.54427C13.3957 6.57124 13.4324 6.73215 13.467 6.90184C13.5635 7.37555 13.5989 7.93009 13.5618 8.38768C13.5336 8.73487 13.4378 9.30949 13.3853 9.44621C13.375 9.47318 13.3728 9.49524 13.3804 9.49524C13.3881 9.49524 13.9275 9.25112 14.5791 8.95271C15.3822 8.5849 15.796 8.3788 15.8639 8.31274C16.0405 8.14065 16.0405 7.84984 15.8639 7.67774C15.796 7.61168 15.3822 7.40559 14.5791 7.03777C13.9275 6.73937 13.3881 6.49524 13.3804 6.49524C13.3728 6.49524 13.375 6.5173 13.3853 6.54427ZM3.10957 10.779C3.10091 10.8034 2.89498 11.3577 2.65198 12.0109C2.35916 12.7978 2.20951 13.2417 2.20832 13.3269C2.20485 13.5762 2.41154 13.7824 2.66366 13.781C2.74913 13.7805 3.01907 13.697 3.4357 13.542C3.78804 13.411 4.32945 13.2112 4.63882 13.0981C4.94819 12.985 5.21263 12.8825 5.22645 12.8703C5.24026 12.8581 5.15288 12.7895 5.03229 12.7178C4.4102 12.3483 3.74548 11.692 3.30585 11.0134C3.19582 10.8435 3.11913 10.752 3.10957 10.779ZM12.7351 10.9415C12.3096 11.6245 11.7534 12.1927 11.0504 12.6628C10.8191 12.8174 10.7619 12.869 10.8035 12.8854C10.8332 12.8971 11.3849 13.1033 12.0294 13.3436C12.8429 13.6469 13.2415 13.7807 13.3327 13.7811C13.5848 13.7822 13.7848 13.5833 13.7855 13.3307C13.7858 13.2365 13.6586 12.8571 13.3442 12.0141C13.1012 11.3627 12.892 10.8112 12.8793 10.7885C12.8635 10.7604 12.8176 10.8091 12.7351 10.9415ZM6.4982 13.3764C6.4982 13.3834 6.74241 13.9228 7.04091 14.575C7.40782 15.3767 7.61516 15.7933 7.68091 15.8609C7.85266 16.0376 8.14373 16.0376 8.31548 15.8609C8.38123 15.7933 8.58857 15.3767 8.95548 14.575C9.25398 13.9228 9.4982 13.3834 9.4982 13.3764C9.4982 13.3693 9.47613 13.372 9.44916 13.3824C9.4222 13.3927 9.26004 13.4297 9.08879 13.4646C8.63379 13.5574 8.06863 13.5929 7.60854 13.5578C7.2656 13.5316 6.68694 13.436 6.54723 13.3824C6.52026 13.372 6.4982 13.3693 6.4982 13.3764Z" fill="#A0A0A0"/>
</g>
<defs>
<clipPath id="clip0_396_17398">
<rect width="16" height="16" fill="white"/>
</clipPath>
</defs>
</svg>
