<svg width="32" height="32" viewBox="0 0 32 32" fill="none" xmlns="http://www.w3.org/2000/svg">
<g clip-path="url(#clip0_413_2618)">
<path fill-rule="evenodd" clip-rule="evenodd" d="M15.3107 2.73053C12.2813 3.07109 9.36596 4.59115 7.36726 6.87219C6.72106 7.60966 6.04265 8.61127 5.62315 9.44731C5.44783 9.79664 5.27768 10.0825 5.24508 10.0825C5.21249 10.0825 4.96036 10.1138 4.6848 10.1522C2.90428 10.3998 1.4456 11.6194 0.869305 13.3422C0.700639 13.8464 0.695991 13.9031 0.672173 15.7501C0.640156 18.2326 0.728718 18.7118 1.42049 19.7964C1.9789 20.672 2.82779 21.3276 3.85321 21.6752C5.13477 22.1097 7.02986 21.8543 7.48409 21.1859C7.73106 20.8225 7.68562 20.4791 7.27767 19.6275C6.06957 17.1053 5.89309 14.3971 6.76502 11.7607C7.91425 8.28575 10.9194 5.59812 14.4871 4.85445C17.5106 4.22426 20.5159 4.89828 22.9866 6.76071C25.072 8.3328 26.4769 10.6477 26.9713 13.327C27.1421 14.2526 27.1266 16.0342 26.9394 16.9785C26.7312 18.0292 26.4115 18.9472 25.9281 19.8833C24.5649 22.5227 22.2006 24.4103 19.3087 25.1682L18.6464 25.3419L18.5439 25.1854C18.0883 24.4904 17.6176 24.0954 16.9986 23.8888C16.4184 23.6952 15.5639 23.7332 15.0361 23.9762C14.0363 24.4365 13.3602 25.5781 13.4592 26.6386C13.6437 28.615 15.808 29.7486 17.5018 28.7559C17.8993 28.523 18.3534 28.0342 18.5376 27.6408C18.65 27.4008 18.7351 27.3042 18.8566 27.2786C21.1301 26.7985 22.8266 26.0156 24.4864 24.6804C25.1373 24.1567 26.1726 23.0706 26.6592 22.4007L27.0602 21.8489L27.8195 21.8802C28.4481 21.9061 28.6702 21.8884 29.1105 21.777C30.5357 21.4166 31.5941 20.5474 32.229 19.2162C32.6348 18.3654 32.6884 17.9345 32.6604 15.7501C32.637 13.9227 32.6305 13.8418 32.4702 13.3637C31.8821 11.6105 30.4437 10.402 28.6476 10.1522C28.372 10.1138 28.1199 10.0825 28.0873 10.0825C28.0547 10.0825 27.8846 9.79664 27.7092 9.44731C25.6218 5.28764 21.227 2.61628 16.5557 2.66772C16.1372 2.67231 15.5769 2.70058 15.3107 2.73053ZM15.9239 6.96023C14.0536 7.16279 12.3903 7.93092 11.0631 9.20499C10.3306 9.90812 9.82335 10.6051 9.36731 11.5348C7.98067 14.3621 8.35893 17.6895 10.349 20.1692C10.5218 20.3844 10.6631 20.6009 10.6631 20.6501C10.6631 20.6994 10.4743 21.4451 10.2436 22.3072C10.0128 23.1694 9.824 23.9388 9.824 24.0171C9.824 24.2512 10.0733 24.667 10.2946 24.8019C10.4209 24.879 10.6179 24.9284 10.7996 24.9285C11.0659 24.9287 11.2817 24.8231 12.8406 23.9298L14.5837 22.9309L15.0279 23.0298C15.724 23.1848 17.0944 23.2166 17.8817 23.0962C22.6738 22.3628 25.7683 17.6108 24.5067 12.9226C24.3098 12.1907 23.8482 11.1985 23.3779 10.496C22.9463 9.85125 21.8805 8.78116 21.2492 8.35869C20.2958 7.72075 19.2389 7.27897 18.1906 7.0801C17.6546 6.97837 16.3788 6.91092 15.9239 6.96023ZM13.7078 14.151C14.0014 14.2325 14.3218 14.5865 14.3792 14.8928C14.4378 15.2048 14.2592 15.6567 14.0064 15.8368C13.7141 16.0449 13.274 16.0619 12.9563 15.8774C12.6337 15.6899 12.4302 15.2556 12.4973 14.8979C12.5527 14.6023 12.8723 14.2322 13.1387 14.155C13.4129 14.0756 13.4358 14.0755 13.7078 14.151ZM17.1786 14.2694C17.6095 14.5804 17.7276 15.0132 17.5063 15.4703C17.1473 16.212 16.1178 16.188 15.8039 15.4307C15.6474 15.053 15.698 14.7435 15.9659 14.4383C16.2812 14.0791 16.8125 14.0051 17.1786 14.2694ZM20.1627 14.151C20.4581 14.233 20.7768 14.5871 20.8351 14.8979C20.9372 15.4424 20.4531 16.0188 19.8936 16.0188C19.3342 16.0188 18.8501 15.4424 18.9522 14.8979C19.0076 14.6023 19.3272 14.2322 19.5936 14.155C19.8678 14.0756 19.8907 14.0755 20.1627 14.151Z" fill="#0199FF"/>
</g>
<defs>
<clipPath id="clip0_413_2618">
<rect width="32" height="32" fill="white"/>
</clipPath>
</defs>
</svg>
