<svg width="33" height="32" viewBox="0 0 33 32" fill="none" xmlns="http://www.w3.org/2000/svg">
<g clip-path="url(#clip0_413_2638)">
<path fill-rule="evenodd" clip-rule="evenodd" d="M20.2676 0.120226C19.9511 0.241834 19.52 0.655488 14.8437 5.32436C12.0497 8.11396 9.76371 10.4179 9.76371 10.4442C9.76371 10.4705 12.2235 10.492 15.2299 10.492H20.6961L23.2432 7.78784C24.644 6.30053 25.9045 4.9636 26.0442 4.81685L26.2981 4.54994L24.1738 2.42396C22.6967 0.945659 21.9638 0.255902 21.7682 0.159991C21.3664 -0.0370824 20.7216 -0.0541512 20.2676 0.120226ZM25.4866 8.12046C24.3184 9.36161 23.3532 10.4029 23.3417 10.4345C23.3294 10.4684 23.9074 10.4917 24.7485 10.4914L26.1761 10.4908L27.6141 8.95827C28.405 8.1154 29.0593 7.40495 29.068 7.37944C29.0768 7.35393 28.7525 7.00248 28.3473 6.59846L27.6108 5.86381L25.4866 8.12046ZM29.5842 9.56975L28.7482 10.4607L30.4007 10.4969C31.3096 10.5168 32.1236 10.5554 32.2096 10.5827C32.3096 10.6145 32.0174 10.281 31.3975 9.6556C30.865 9.11833 30.4272 8.67879 30.4247 8.67879C30.4222 8.67879 30.044 9.07969 29.5842 9.56975ZM2.54226 12.3923C1.94679 12.5813 1.49274 12.9917 1.28592 13.528C1.17081 13.8263 1.16675 14.1248 1.16675 22.2151V30.5932L1.32012 30.9048C1.53051 31.3325 1.94185 31.7151 2.35888 31.8711C2.70301 31.9999 2.71395 32 17.1415 32C31.569 32 31.5799 31.9999 31.924 31.8711C32.3405 31.7153 32.749 31.3353 32.9615 30.9058L33.1162 30.5932V22.2151C33.1162 14.107 33.1123 13.827 32.9963 13.5261C32.8388 13.1177 32.4102 12.6674 32.0041 12.4838L31.6781 12.3364L17.2352 12.3247C5.71032 12.3153 2.74184 12.329 2.54226 12.3923ZM9.92902 16.1954C10.2148 16.3518 10.5161 16.6734 10.6471 16.9618C10.749 17.1862 10.7613 17.4019 10.7613 18.9639C10.7613 20.5285 10.7491 20.7414 10.6467 20.9671C10.5021 21.2851 10.0343 21.7015 9.71325 21.7977C9.39776 21.8922 5.64654 21.8992 5.31048 21.8058C4.96248 21.7092 4.56996 21.3777 4.39014 21.0285C4.23277 20.723 4.23008 20.6943 4.21088 19.1045C4.18913 17.3031 4.22983 17.0222 4.57202 16.6093C4.67631 16.4834 4.90939 16.3065 5.08996 16.2161L5.41833 16.0518L7.57539 16.0698C9.4761 16.0857 9.75583 16.1006 9.92902 16.1954ZM6.07483 18.9314V19.9955H7.51437H8.9539L8.93677 18.9483L8.91964 17.901L7.49724 17.8842L6.07483 17.8673V18.9314ZM8.70081 26.9981V27.936H6.38745H4.07408V26.9981V26.0603H6.38745H8.70081V26.9981ZM15.891 26.9981V27.936H13.5776H11.2643V26.9981V26.0603H13.5776H15.891V26.9981ZM23.0187 26.9981V27.936H20.7053H18.3919V26.9981V26.0603H20.7053H23.0187V26.9981ZM30.2088 26.9981V27.936H27.8955H25.5821V26.9981V26.0603H27.8955H30.2088V26.9981Z" fill="#0199FF"/>
</g>
<defs>
<clipPath id="clip0_413_2638">
<rect width="32" height="32" fill="white" transform="translate(0.5)"/>
</clipPath>
</defs>
</svg>
