<svg width="32" height="32" viewBox="0 0 32 32" fill="none" xmlns="http://www.w3.org/2000/svg">
<g clip-path="url(#clip0_413_2635)">
<path fill-rule="evenodd" clip-rule="evenodd" d="M7.16626 2.71815C3.86653 4.22435 1.09643 5.52158 1.01043 5.60091C0.654731 5.92901 0.666797 5.74429 0.666797 10.8631C0.666797 13.7736 0.694728 15.9038 0.738724 16.3493C1.15369 20.5497 2.95601 24.3931 5.89749 27.3505C7.72901 29.1919 9.34094 30.2804 11.9209 31.4179C13.5795 32.1492 13.466 32.1608 15.9123 31.0074L16.659 30.6553L15.7427 29.7326C15.2294 29.2156 14.6666 28.5731 14.4628 28.2715L14.099 27.7333L13.8661 27.8284C13.5107 27.9736 13.1408 27.8871 12.3184 27.4664C9.50233 26.026 7.30464 23.8054 5.92909 21.0105C5.21362 19.5569 4.88158 18.5339 4.58747 16.8775C4.45668 16.141 4.44322 15.7835 4.41695 12.3671C4.38929 8.77331 4.39255 8.64712 4.52121 8.35634C4.5942 8.19122 4.72579 8.00911 4.81358 7.95158C4.90131 7.89405 6.82202 7.00666 9.0817 5.97947C12.4105 4.46633 13.2443 4.1119 13.4751 4.1119C13.7056 4.1119 14.5322 4.46273 17.818 5.95548C20.05 6.96946 21.9712 7.86252 22.0873 7.93998C22.4731 8.19756 22.5314 8.41694 22.5315 9.61144L22.5316 10.678L23.6149 10.6831C24.5815 10.6876 25.5263 10.7893 26.1147 10.9521L26.2647 10.9935V8.54933C26.2647 5.93088 26.2633 5.91868 25.919 5.59717C25.8318 5.51585 23.0767 4.22855 19.7965 2.73648C14.9422 0.528529 13.7704 0.0195711 13.4991 0.00163924C13.183 -0.0192257 12.8566 0.120696 7.16626 2.71815ZM9.98269 7.89198L6.53297 9.46332L6.53431 12.4705C6.53571 15.729 6.5793 16.3377 6.90434 17.6359C7.66808 20.6861 9.66185 23.398 12.3698 25.07C12.6957 25.2712 12.9695 25.4287 12.9782 25.4199C12.987 25.4111 12.9491 25.2553 12.894 25.0737C12.0623 22.3346 12.331 19.337 13.6378 16.7748C14.9075 14.2853 17.0554 12.3687 19.6889 11.3754L20.3652 11.1204L20.3838 10.2914L20.4024 9.46232L16.9374 7.88698C15.0316 7.02059 13.4634 6.31371 13.4524 6.31618C13.4414 6.31858 11.8801 7.02772 9.98269 7.89198ZM22.165 12.8815C20.8176 13.1092 19.3141 13.7387 18.2627 14.5155C15.9143 16.2504 14.5328 18.9646 14.5328 21.8438C14.5328 23.2569 14.8262 24.5105 15.4617 25.8128C16.3622 27.6581 17.7838 29.0798 19.6292 29.9803C22.1847 31.2274 25.0117 31.2274 27.5672 29.9803C29.4126 29.0798 30.8342 27.6581 31.7347 25.8128C33.4138 22.372 32.7921 18.3996 30.1289 15.5527C28.8814 14.2191 26.8915 13.1824 24.9981 12.8796C24.2336 12.7574 22.8944 12.7583 22.165 12.8815ZM27.573 18.6858C28.0371 18.9061 28.279 19.4398 28.1356 19.9272C28.065 20.1676 27.7123 20.5539 25.8086 22.4764C24.5745 23.7227 23.4479 24.8251 23.3049 24.9262C22.9915 25.1479 22.6371 25.1673 22.279 24.9825C22.143 24.9123 21.367 24.1848 20.5546 23.366C18.964 21.7626 18.9228 21.7022 19.0301 21.1304C19.0916 20.8023 19.4904 20.4035 19.8185 20.342C20.3699 20.2386 20.4847 20.3086 21.6342 21.4494C22.2223 22.0329 22.7282 22.5104 22.7586 22.5104C22.7889 22.5104 23.6276 21.6807 24.6225 20.6667C26.4454 18.8087 26.72 18.5822 27.1545 18.5788C27.259 18.578 27.4472 18.6262 27.573 18.6858Z" fill="#0199FF"/>
</g>
<defs>
<clipPath id="clip0_413_2635">
<rect width="32" height="32" fill="white"/>
</clipPath>
</defs>
</svg>
