<svg width="28" height="28" viewBox="0 0 28 28" fill="none" xmlns="http://www.w3.org/2000/svg">
<path fill-rule="evenodd" clip-rule="evenodd" d="M12.8768 0.0164138C10.2361 0.290731 8.01179 1.08809 6.01788 2.47531C2.71824 4.77096 0.637518 8.18532 0.0716026 12.2328C-0.0238675 12.9157 -0.0238675 15.05 0.0716026 15.7329C0.322664 17.5286 0.895923 19.282 1.70347 20.7242C4.13166 25.0608 8.50794 27.7612 13.4386 27.9654L14.2743 28V22.55V17.1001H12.7672H11.2601V15.3509V13.6018L12.7535 13.5872L14.2469 13.5727L14.278 11.7406C14.3131 9.66201 14.3473 9.44589 14.7799 8.56869C14.9651 8.19303 15.1041 8.0089 15.5049 7.60907C16.0704 7.04474 16.5828 6.75391 17.3982 6.53433C17.8175 6.4214 17.9845 6.40888 19.0698 6.40893C19.7329 6.40893 20.5406 6.42972 20.8646 6.45504L21.4538 6.50103V8.08174V9.66245H20.2544C18.8655 9.66245 18.6078 9.71326 18.2658 10.0545C17.9309 10.3887 17.8915 10.6164 17.8915 12.2154V13.6H19.6178C20.5673 13.6 21.3442 13.6062 21.3441 13.6137C21.3441 13.6212 21.2455 14.3903 21.125 15.3227C21.0044 16.2551 20.9058 17.0365 20.9058 17.0591C20.9057 17.0816 20.2275 17.1001 19.3986 17.1001H17.8915V22.2681C17.8915 25.1105 17.9011 27.4362 17.9128 27.4362C17.9245 27.4362 18.224 27.3364 18.5784 27.2145C21.8594 26.0855 24.6186 23.7563 26.3167 20.6822C27.1217 19.225 27.6844 17.4964 27.9282 15.7329C28.0234 15.0441 28.0241 12.9081 27.9293 12.2328C27.4823 9.04726 26.105 6.25892 23.8992 4.07369C21.717 1.91169 19.0335 0.57336 15.9626 0.11529C15.4212 0.0345157 13.3433 -0.03204 12.8768 0.0164138Z" fill="#1877F2"/>
</svg>
