<svg width="28" height="28" viewBox="0 0 28 28" fill="none" xmlns="http://www.w3.org/2000/svg">
<path fill-rule="evenodd" clip-rule="evenodd" d="M12.8765 0.0164394C9.35161 0.383148 6.44751 1.732 4.08328 4.10063C1.86286 6.32515 0.517264 9.05928 0.071601 12.2519C-0.023867 12.9358 -0.023867 15.0734 0.071601 15.7574C0.513263 18.9215 1.85721 21.6698 4.03357 23.8595C6.23871 26.0781 8.88551 27.4067 12.0819 27.8993C12.8697 28.0207 14.968 28.0358 15.7537 27.9257C18.9512 27.4777 21.6853 26.1335 23.9094 23.9159C26.1206 21.7112 27.4835 18.9446 27.9284 15.7574C28.0239 15.0734 28.0239 12.9358 27.9284 12.2519C27.4837 9.06591 26.1251 6.30576 23.9141 4.09597C21.7458 1.9288 19.0425 0.575678 15.9622 0.11547C15.4208 0.0345695 13.343 -0.03209 12.8765 0.0164394ZM20.5569 8.50727C20.8011 8.62312 20.9053 8.83213 20.9053 9.20646C20.9053 9.50256 18.6897 20.1044 18.5151 20.6443C18.3562 21.1353 17.9097 21.3189 17.4505 21.0821C17.3462 21.0283 16.5032 20.4247 15.5772 19.7407C14.6512 19.0568 13.8721 18.4907 13.8458 18.4829C13.8195 18.4751 13.3523 18.8914 12.8075 19.4081C12.107 20.0726 11.7665 20.3587 11.6442 20.3856C11.549 20.4064 11.4597 20.4121 11.4457 20.398C11.4316 20.384 11.4749 19.5807 11.5418 18.613L11.6635 16.8536L14.654 14.1568C16.2987 12.6736 17.79 11.3214 17.9679 11.1521C18.3163 10.8205 18.3367 10.692 18.0353 10.7284C17.9268 10.7416 16.3681 11.6909 13.7999 13.3081C11.5647 14.7154 9.70723 15.8669 9.67199 15.8669C9.54825 15.8669 6.07912 14.7599 5.93247 14.6736C5.85086 14.6255 5.75474 14.5154 5.7189 14.4289C5.66294 14.2939 5.66919 14.2506 5.76252 14.1244C5.82237 14.0435 5.96781 13.9235 6.08575 13.8579C6.20363 13.7922 7.71813 13.1922 9.4513 12.5245C11.1845 11.8568 13.626 10.916 14.8769 10.4339C17.0566 9.59387 19.8557 8.51932 20.0284 8.45633C20.1832 8.39992 20.3681 8.41772 20.5569 8.50727Z" fill="#049BE5"/>
</svg>
