<svg width="32" height="32" viewBox="0 0 32 32" fill="none" xmlns="http://www.w3.org/2000/svg">
<g clip-path="url(#clip0_559_4743)">
<path fill-rule="evenodd" clip-rule="evenodd" d="M19.7675 0.120226C19.4509 0.241834 19.0199 0.655488 14.3436 5.32436C11.5496 8.11396 9.26358 10.4179 9.26358 10.4442C9.26358 10.4705 11.7234 10.492 14.7298 10.492H20.196L22.7431 7.78784C24.1439 6.30053 25.4044 4.9636 25.544 4.81685L25.798 4.54994L23.6737 2.42396C22.1966 0.945659 21.4637 0.255902 21.2681 0.159991C20.8662 -0.0370824 20.2215 -0.0541512 19.7675 0.120226ZM24.9865 8.12046C23.8183 9.36161 22.853 10.4029 22.8416 10.4345C22.8293 10.4684 23.4073 10.4917 24.2484 10.4914L25.676 10.4908L27.114 8.95827C27.9049 8.1154 28.5592 7.40495 28.5679 7.37944C28.5767 7.35393 28.2524 7.00248 27.8472 6.59846L27.1107 5.86381L24.9865 8.12046ZM29.0841 9.56975L28.2481 10.4607L29.9006 10.4969C30.8095 10.5168 31.6235 10.5554 31.7095 10.5827C31.8095 10.6145 31.5173 10.281 30.8974 9.6556C30.3648 9.11833 29.927 8.67879 29.9245 8.67879C29.9221 8.67879 29.5438 9.07969 29.0841 9.56975ZM2.04214 12.3923C1.44667 12.5813 0.992623 12.9917 0.785795 13.528C0.67069 13.8263 0.666626 14.1248 0.666626 22.2151V30.5932L0.819996 30.9048C1.03039 31.3325 1.44173 31.7151 1.85876 31.8711C2.20289 31.9999 2.21383 32 16.6413 32C31.0688 32 31.0798 31.9999 31.4239 31.8711C31.8404 31.7153 32.2488 31.3353 32.4614 30.9058L32.6161 30.5932V22.2151C32.6161 14.107 32.6122 13.827 32.4962 13.5261C32.3387 13.1177 31.91 12.6674 31.504 12.4838L31.178 12.3364L16.7351 12.3247C5.2102 12.3153 2.24171 12.329 2.04214 12.3923ZM9.4289 16.1954C9.71463 16.3518 10.016 16.6734 10.147 16.9618C10.2489 17.1862 10.2612 17.4019 10.2612 18.9639C10.2612 20.5285 10.249 20.7414 10.1465 20.9671C10.002 21.2851 9.53419 21.7015 9.21313 21.7977C8.89764 21.8922 5.14642 21.8992 4.81036 21.8058C4.46236 21.7092 4.06983 21.3777 3.89002 21.0285C3.73265 20.723 3.72996 20.6943 3.71076 19.1045C3.689 17.3031 3.72971 17.0222 4.0719 16.6093C4.17619 16.4834 4.40927 16.3065 4.58984 16.2161L4.91821 16.0518L7.07527 16.0698C8.97598 16.0857 9.25571 16.1006 9.4289 16.1954ZM5.57471 18.9314V19.9955H7.01425H8.45378L8.43665 18.9483L8.41952 17.901L6.99711 17.8842L5.57471 17.8673V18.9314ZM8.20069 26.9981V27.936H5.88732H3.57396V26.9981V26.0603H5.88732H8.20069V26.9981ZM15.3909 26.9981V27.936H13.0775H10.7641V26.9981V26.0603H13.0775H15.3909V26.9981ZM22.5185 26.9981V27.936H20.2052H17.8918V26.9981V26.0603H20.2052H22.5185V26.9981ZM29.7087 26.9981V27.936H27.3954H25.082V26.9981V26.0603H27.3954H29.7087V26.9981Z" fill="#1C1C1C"/>
</g>
<defs>
<clipPath id="clip0_559_4743">
<rect width="32" height="32" fill="white"/>
</clipPath>
</defs>
</svg>
