<svg width="32" height="32" viewBox="0 0 32 32" fill="none" xmlns="http://www.w3.org/2000/svg">
<g clip-path="url(#clip0_559_4726)">
<path fill-rule="evenodd" clip-rule="evenodd" d="M7.4073 0.16694C8.3396 0.389854 9.4932 1.04082 10.0927 1.68231L10.2766 1.87906L10.7826 1.41537C11.3533 0.892491 12.3792 0.346441 13.1803 0.139229C13.5113 0.0536347 13.9672 0.0116845 14.5273 0.0153792C15.2658 0.0202285 15.5511 0.0655656 16.7596 0.370072C17.5216 0.562121 18.249 0.758249 18.376 0.80605C19.3483 1.1716 19.933 2.22051 19.7245 3.22486C19.6306 3.67723 18.9271 4.85339 18.2359 5.71364C17.492 6.6394 16.2936 7.42653 15.0239 7.82333C14.535 7.97604 14.2856 8.00267 13.3342 8.00344C12.7204 8.00391 12.0536 7.97435 11.8525 7.93779L11.4869 7.87136V8.83784V9.80439L14.893 9.82802L18.299 9.85165L18.803 10.0905C19.2837 10.3183 19.877 10.7606 19.877 10.8911C19.877 10.9248 19.6951 10.9948 19.4729 11.0465C18.4972 11.2737 16.9227 11.995 15.9179 12.6752C15.1722 13.18 14.2117 14.0247 13.6655 14.6559C12.7265 15.7413 11.7648 17.3599 11.4324 18.4144L11.303 18.8247L6.75734 18.8027L2.2116 18.7806L1.72805 18.5573C1.11388 18.2737 0.487934 17.6176 0.236077 16.9936C0.0623482 16.5633 0.0563444 16.4747 0.0563444 14.3546C0.0563444 12.4495 0.0743563 12.1102 0.192972 11.776C0.466305 11.006 1.16576 10.2926 1.94219 9.99174C2.2487 9.87297 2.68029 9.8545 5.69464 9.83095L9.10071 9.80439V8.83791V7.87136L8.85055 7.92039C8.713 7.94741 8.14548 7.99036 7.5895 8.01584C6.78297 8.05286 6.45745 8.03531 5.97891 7.92878C4.72578 7.64998 3.62475 7.04251 2.70746 6.12368C2.22592 5.64128 1.38691 4.45436 1.02213 3.73935C0.497941 2.71183 0.955239 1.37327 1.99138 0.902574C2.39687 0.7183 4.64242 0.134688 5.32902 0.0350072C5.86891 -0.0432747 6.76604 0.0136086 7.4073 0.16694ZM24.9164 13.4251C28.1924 14.2594 30.83 16.8712 31.6857 20.1283C32.4457 23.0213 31.8095 26.0813 29.97 28.3801C28.5526 30.1516 26.7082 31.2885 24.4903 31.758C23.8694 31.8894 23.4338 31.9275 22.5711 31.9261C21.3459 31.9241 20.6899 31.8178 19.5368 31.4343C16.3848 30.3861 13.9937 27.6186 13.3256 24.2457C13.1682 23.4516 13.1882 21.4846 13.3617 20.6821C13.7645 18.8192 14.5903 17.2663 15.8652 15.9742C17.1426 14.6797 18.5714 13.849 20.2503 13.4248C21.2269 13.178 21.7109 13.1294 22.8789 13.1607C23.8045 13.1854 24.1524 13.2306 24.9164 13.4251ZM21.9557 16.5291C21.5598 16.7307 21.2625 17.2162 21.2625 17.6611C21.2625 17.9152 21.2355 17.9512 20.9739 18.0455C20.5136 18.2117 19.7046 19.0762 19.4939 19.6273C19.1066 20.6402 19.3182 21.7577 20.0486 22.5569C20.5079 23.0595 20.8488 23.2451 22.1702 23.7119C23.3451 24.1271 23.5428 24.3131 23.1868 24.669C22.9097 24.9461 21.927 24.8183 21.1472 24.4036C20.6968 24.1642 20.4152 24.1565 19.9707 24.3717C19.4552 24.6212 19.1775 25.1901 19.2996 25.7463C19.4098 26.2482 20.1185 26.7912 21.0123 27.0587C21.3108 27.148 21.3395 27.1787 21.3395 27.4087C21.3395 27.9646 21.7644 28.5373 22.2797 28.6761C23.0611 28.8865 23.8768 28.1953 23.8791 27.3207C23.8794 27.2096 23.9843 27.112 24.2333 26.991C24.7751 26.7278 25.3663 26.123 25.6212 25.5713C25.813 25.1561 25.8424 25.0002 25.8424 24.3996C25.8424 23.8021 25.8128 23.6434 25.6268 23.245C25.4037 22.767 24.9383 22.2275 24.5299 21.9735C24.4008 21.8931 23.8198 21.6536 23.2389 21.4411C22.658 21.2286 22.1142 21.0182 22.0305 20.9734C21.8432 20.8731 21.8316 20.5701 22.0085 20.3933C22.2097 20.1921 23.1047 20.2735 23.6914 20.5463C24.3685 20.8613 24.5642 20.9055 24.8917 20.8173C25.7528 20.5854 26.1076 19.6468 25.6179 18.896C25.4334 18.6132 24.529 18.0983 24.0475 18.0021C23.825 17.9576 23.8026 17.9269 23.8026 17.6669C23.8026 17.2279 23.5067 16.7413 23.1129 16.5332C22.6913 16.3102 22.3876 16.3091 21.9557 16.5291ZM0.633645 20.8016C1.69157 21.317 1.61413 21.3097 6.38278 21.3405L10.7078 21.3684L10.7104 22.4607C10.7126 23.415 10.782 24.064 10.9942 25.114L11.0453 25.3666L6.58992 25.3449L2.13463 25.3233L1.69618 25.1178C0.896047 24.7428 0.295732 23.9696 0.104376 23.0681C0.00846699 22.6159 -0.0157027 20.4827 0.0755877 20.5288C0.107378 20.5448 0.358465 20.6676 0.633645 20.8016ZM1.28792 27.6467L1.90371 27.8634L6.93969 27.9019L11.9756 27.9404L12.3311 28.5591C12.8685 29.4942 13.5331 30.3216 14.4495 31.1966L15.2768 31.9865L8.78274 31.964C2.78112 31.9432 2.26232 31.9312 1.94219 31.8051C1.18077 31.5053 0.476927 30.7983 0.202209 30.0572C0.107686 29.8021 0.0640418 29.3583 0.0369472 28.3745L0 27.0383L0.336066 27.2342C0.520879 27.3418 0.949235 27.5275 1.28792 27.6467Z" fill="#1C1C1C"/>
</g>
<defs>
<clipPath id="clip0_559_4726">
<rect width="32" height="32" fill="white"/>
</clipPath>
</defs>
</svg>
