<svg width="32" height="32" viewBox="0 0 32 32" fill="none" xmlns="http://www.w3.org/2000/svg">
<g clip-path="url(#clip0_559_4732)">
<path fill-rule="evenodd" clip-rule="evenodd" d="M9.42036 -0.441416C7.99803 -0.360273 6.32049 -0.0497853 5.05338 0.366953C0.362068 1.90962 -1.36774 5.22894 1.14614 7.86442C3.89207 10.7433 10.6887 11.7644 15.838 10.0718C18.338 9.25 20.0645 7.86467 20.5784 6.26809C20.7582 5.7091 20.7589 4.88677 20.5799 4.3095C19.8684 2.01587 16.7443 0.180748 12.703 -0.317447C11.9245 -0.413429 10.1227 -0.481487 9.42036 -0.441416ZM-0.0191691 10.4454C0.00543701 11.381 0.0280395 11.5641 0.167411 11.959C0.785631 13.7105 2.90964 15.2134 5.81153 15.9527C7.08842 16.2781 8.12788 16.4294 9.70311 16.5192L10.3928 16.5586L10.6423 16.0426C11.1959 14.8972 11.8917 13.8579 12.6433 13.0536L13.0174 12.6532L12.7059 12.6895C11.9451 12.7782 9.47802 12.807 8.66903 12.7367C5.12062 12.4279 1.92947 11.2503 0.194271 9.60932L-0.0471561 9.38098L-0.0191691 10.4454ZM20.7321 10.9814C17.2057 11.2942 14.0722 13.4631 12.431 16.7272C10.8775 19.817 11.0709 23.6273 12.936 26.6774C14.1606 28.68 16.1895 30.2778 18.4507 31.0203C20.2217 31.6018 22.0815 31.7034 23.8777 31.3166C26.5623 30.7385 29.0304 28.9959 30.4482 26.6774C31.606 24.7839 32.1532 22.5474 31.9678 20.466C31.512 15.3486 27.6222 11.427 22.5569 10.9787C21.7729 10.9093 21.5416 10.9097 20.7321 10.9814ZM22.6338 15.689L22.6364 16.7064L22.9472 16.8522C23.3368 17.035 23.9001 17.5448 24.1121 17.9066C24.3115 18.2469 24.5096 18.8683 24.5096 19.1538V19.3674H23.5729H22.6361L22.572 19.1296C22.3968 18.4786 21.6018 18.2441 21.0908 18.6928C20.5076 19.2048 20.8082 20.1734 21.5799 20.2687C21.7277 20.2869 21.9891 20.3197 22.1607 20.3416C22.8617 20.4307 23.7391 21.0267 24.1159 21.6697C24.6331 22.5523 24.6317 23.6983 24.1121 24.5848C23.9001 24.9467 23.3368 25.4565 22.9472 25.6393L22.6364 25.785L22.6338 26.8025L22.6313 27.8199H21.6921H20.7529L20.7504 26.8025L20.7478 25.785L20.437 25.6393C20.0474 25.4565 19.4841 24.9467 19.2721 24.5848C19.0726 24.2445 18.8746 23.6231 18.8746 23.3376V23.1241H19.8113H20.7481L20.8122 23.3619C20.9874 24.0129 21.7824 24.2474 22.2933 23.7987C22.8908 23.2741 22.5747 22.3154 21.773 22.2204C20.7165 22.0953 20.2006 21.8727 19.6647 21.3108C18.7918 20.3957 18.6258 19.0987 19.2372 17.9694C19.4439 17.5874 20.0253 17.0455 20.434 16.8537L20.7478 16.7064L20.7504 15.689L20.7529 14.6716H21.6921H22.6313L22.6338 15.689ZM-0.0333817 15.8405C-0.0327556 16.9622 0.0399356 17.3498 0.379725 18.0433C1.15622 19.6282 3.21744 20.9259 6.07068 21.6261C6.82664 21.8116 8.10516 22.0152 8.98897 22.0906L9.46538 22.1313L9.50225 20.9215C9.52811 20.0739 9.57751 19.5244 9.66736 19.0857C9.73792 18.7413 9.79571 18.4559 9.79584 18.4514C9.79596 18.4468 9.52135 18.4243 9.18557 18.4013C5.45935 18.1458 2.19619 17.025 0.32613 15.3581L-0.0338826 15.0372L-0.0333817 15.8405ZM-0.0200456 21.7185C0.00524918 22.5999 0.0341128 22.8487 0.150319 23.1867C0.890755 25.341 3.72527 27.0087 7.64803 27.5979C8.5671 27.7359 10.1924 27.8312 10.8123 27.7834L11.3589 27.7413L11.1985 27.4832C10.7359 26.7387 10.0875 25.1657 9.8242 24.1493C9.81324 24.1069 9.56086 24.062 9.19051 24.0366C5.45133 23.7801 2.19776 22.6614 0.317803 20.9857L-0.0505371 20.6574L-0.0200456 21.7185Z" fill="#1C1C1C"/>
</g>
<defs>
<clipPath id="clip0_559_4732">
<rect width="32" height="32" fill="white"/>
</clipPath>
</defs>
</svg>
