<svg width="32" height="32" viewBox="0 0 32 32" fill="none" xmlns="http://www.w3.org/2000/svg">
<g clip-path="url(#clip0_559_4738)">
<path fill-rule="evenodd" clip-rule="evenodd" d="M10.3214 0.262549C8.90955 0.428803 7.48829 1.15878 6.46857 2.24146C5.96512 2.77593 5.72653 3.11638 5.41378 3.74638C4.15215 6.28789 4.69987 9.32761 6.76794 11.2622C7.50692 11.9535 8.33294 12.4203 9.38348 12.7403C9.90494 12.8991 10.0287 12.912 11.0717 12.9152C12.0599 12.9182 12.2619 12.901 12.7286 12.7739C15.2054 12.0997 17.0145 10.0883 17.4199 7.55777C17.5275 6.88594 17.4699 5.68259 17.2978 5.00919C17.0106 3.88499 16.1783 2.52208 15.3443 1.80998C14.3084 0.925563 13.1262 0.410358 11.7764 0.255171C11.1911 0.187894 10.9447 0.189144 10.3214 0.262549ZM9.50854 14.736C6.93726 15.1282 4.81647 16.2147 3.0312 18.0545C1.17208 19.9703 0.176685 22.2873 -0.0607218 25.2516L-0.102051 25.7675H5.87559C10.9589 25.7675 11.8532 25.7544 11.8532 25.6799C11.8532 25.6317 11.7969 25.2632 11.7282 24.8609C11.4399 23.1743 11.6247 21.5076 12.2884 19.8102C12.8775 18.3034 14.2384 16.5071 15.4134 15.6855C15.4972 15.6268 15.5535 15.5673 15.5384 15.5534C15.4662 15.4866 14.2646 15.071 13.8053 14.954C12.5842 14.6427 10.735 14.5489 9.50854 14.736ZM20.4338 16.795C17.4086 17.3434 15.1901 19.7155 14.8551 22.7601C14.6934 24.2295 15.1115 25.857 15.9829 27.1507C16.3505 27.6964 17.1602 28.5172 17.6944 28.8853C18.9754 29.7685 20.2305 30.1283 21.8081 30.0647C23.2735 30.0057 24.6156 29.4858 25.779 28.5268C26.0029 28.3421 26.204 28.2175 26.2256 28.2497C26.2474 28.2819 26.9469 29.0961 27.78 30.059C29.5151 32.0643 29.578 32.1138 30.3922 32.1138C30.781 32.1138 30.8796 32.089 31.1471 31.9239C31.4984 31.7072 31.8216 31.2297 31.8849 30.8339C31.9361 30.5142 31.8326 30.0488 31.6479 29.7678C31.5536 29.6243 30.81 29.0503 29.5095 28.1172C28.413 27.3305 27.4951 26.6689 27.4699 26.6471C27.4446 26.6253 27.522 26.3807 27.6418 26.1036C28.1067 25.0283 28.3045 23.7984 28.1821 22.745C28.0784 21.8526 27.9127 21.2899 27.5163 20.4841C26.9545 19.3419 26.1885 18.4738 25.1388 17.7896C23.7453 16.8812 21.997 16.5117 20.4338 16.795ZM22.2614 20.6112C23.8812 21.0332 24.8275 22.843 24.2385 24.3929C23.6186 26.0245 21.8307 26.7373 20.2427 25.986C19.4057 25.59 18.8194 24.7948 18.6621 23.8428C18.4721 22.6923 19.0589 21.4871 20.108 20.8731C20.6933 20.5307 21.5514 20.4263 22.2614 20.6112Z" fill="#1C1C1C"/>
</g>
<defs>
<clipPath id="clip0_559_4738">
<rect width="32" height="32" fill="white"/>
</clipPath>
</defs>
</svg>
