<svg width="32" height="28" viewBox="0 0 32 28" fill="none" xmlns="http://www.w3.org/2000/svg">
<path fill-rule="evenodd" clip-rule="evenodd" d="M14.8105 0.730528C11.7812 1.07109 8.86583 2.59115 6.86714 4.87219C6.22094 5.60966 5.54253 6.61127 5.12302 7.44731C4.94771 7.79664 4.77756 8.08247 4.74496 8.08247C4.71236 8.08247 4.46024 8.11384 4.18468 8.15218C2.40416 8.39979 0.945477 9.61938 0.369183 11.3422C0.200517 11.8464 0.195869 11.9031 0.17205 13.7501C0.140034 16.2326 0.228595 16.7118 0.920367 17.7964C1.47878 18.672 2.32766 19.3276 3.35309 19.6752C4.63465 20.1097 6.52974 19.8543 6.98397 19.1859C7.23094 18.8225 7.18549 18.4791 6.77754 17.6275C5.56945 15.1053 5.39297 12.3971 6.2649 9.76074C7.41413 6.28575 10.4193 3.59812 13.987 2.85445C17.0105 2.22426 20.0158 2.89828 22.4864 4.76071C24.5719 6.3328 25.9767 8.64772 26.4712 11.327C26.642 12.2526 26.6264 14.0342 26.4393 14.9785C26.2311 16.0292 25.9114 16.9472 25.4279 17.8833C24.0647 20.5227 21.7005 22.4103 18.8086 23.1682L18.1462 23.3419L18.0437 23.1854C17.5882 22.4904 17.1175 22.0954 16.4985 21.8888C15.9183 21.6952 15.0638 21.7332 14.536 21.9762C13.5362 22.4365 12.8601 23.5781 12.9591 24.6386C13.1436 26.615 15.3079 27.7486 17.0017 26.7559C17.3992 26.523 17.8533 26.0342 18.0375 25.6408C18.1499 25.4008 18.235 25.3042 18.3565 25.2786C20.63 24.7985 22.3265 24.0156 23.9862 22.6804C24.6372 22.1567 25.6725 21.0706 26.1591 20.4007L26.5601 19.8489L27.3194 19.8802C27.948 19.9061 28.1701 19.8884 28.6103 19.777C30.0356 19.4166 31.094 18.5474 31.7289 17.2162C32.1347 16.3654 32.1883 15.9345 32.1603 13.7501C32.1369 11.9227 32.1304 11.8418 31.9701 11.3637C31.382 9.61047 29.9436 8.40199 28.1475 8.15218C27.8719 8.11384 27.6198 8.08247 27.5872 8.08247C27.5546 8.08247 27.3844 7.79664 27.2091 7.44731C25.1217 3.28764 20.7269 0.616277 16.0556 0.667722C15.6371 0.672305 15.0768 0.700578 14.8105 0.730528ZM15.4238 4.96023C13.5535 5.16279 11.8902 5.93092 10.563 7.20499C9.83052 7.90812 9.32323 8.60512 8.86719 9.53482C7.48055 12.3621 7.85881 15.6895 9.84885 18.1692C10.0216 18.3844 10.163 18.6009 10.163 18.6501C10.163 18.6994 9.97421 19.4451 9.74344 20.3072C9.51268 21.1694 9.32387 21.9388 9.32387 22.0171C9.32387 22.2512 9.57316 22.667 9.79444 22.8019C9.92082 22.879 10.1178 22.9284 10.2995 22.9285C10.5658 22.9287 10.7816 22.8231 12.3404 21.9298L14.0836 20.9309L14.5278 21.0298C15.2238 21.1848 16.5943 21.2166 17.3816 21.0962C22.1737 20.3628 25.2682 15.6108 24.0066 10.9226C23.8096 10.1907 23.3481 9.19845 22.8778 8.49603C22.4462 7.85125 21.3804 6.78116 20.749 6.35869C19.7957 5.72075 18.7388 5.27897 17.6905 5.0801C17.1544 4.97837 15.8787 4.91092 15.4238 4.96023ZM13.2077 12.151C13.5012 12.2325 13.8216 12.5865 13.8791 12.8928C13.9376 13.2048 13.7591 13.6567 13.5063 13.8368C13.214 14.0449 12.7739 14.0619 12.4562 13.8774C12.1336 13.6899 11.93 13.2556 11.9972 12.8979C12.0526 12.6023 12.3721 12.2322 12.6386 12.155C12.9127 12.0756 12.9356 12.0755 13.2077 12.151ZM16.6785 12.2694C17.1094 12.5804 17.2275 13.0132 17.0062 13.4703C16.6472 14.212 15.6177 14.188 15.3038 13.4307C15.1473 13.053 15.1978 12.7435 15.4658 12.4383C15.7811 12.0791 16.3124 12.0051 16.6785 12.2694ZM19.6626 12.151C19.9579 12.233 20.2767 12.5871 20.335 12.8979C20.4371 13.4424 19.953 14.0188 19.3935 14.0188C18.8341 14.0188 18.35 13.4424 18.4521 12.8979C18.5075 12.6023 18.827 12.2322 19.0935 12.155C19.3676 12.0756 19.3906 12.0755 19.6626 12.151Z" fill="#0199FF"/>
</svg>
