<svg width="32" height="32" viewBox="0 0 32 32" fill="none" xmlns="http://www.w3.org/2000/svg">
<path fill-rule="evenodd" clip-rule="evenodd" d="M19.2676 0.120226C18.9511 0.241834 18.52 0.655488 13.8437 5.32436C11.0497 8.11396 8.76371 10.4179 8.76371 10.4442C8.76371 10.4705 11.2235 10.492 14.2299 10.492H19.6961L22.2432 7.78784C23.644 6.30053 24.9045 4.9636 25.0442 4.81685L25.2981 4.54994L23.1738 2.42396C21.6967 0.945659 20.9638 0.255902 20.7682 0.159991C20.3664 -0.0370824 19.7216 -0.0541512 19.2676 0.120226ZM24.4866 8.12046C23.3184 9.36161 22.3532 10.4029 22.3417 10.4345C22.3294 10.4684 22.9074 10.4917 23.7485 10.4914L25.1761 10.4908L26.6141 8.95827C27.405 8.1154 28.0593 7.40495 28.068 7.37944C28.0768 7.35393 27.7525 7.00248 27.3473 6.59846L26.6108 5.86381L24.4866 8.12046ZM28.5842 9.56975L27.7482 10.4607L29.4007 10.4969C30.3096 10.5168 31.1236 10.5554 31.2096 10.5827C31.3096 10.6145 31.0174 10.281 30.3975 9.6556C29.865 9.11833 29.4272 8.67879 29.4247 8.67879C29.4222 8.67879 29.044 9.07969 28.5842 9.56975ZM1.54226 12.3923C0.946789 12.5813 0.492745 12.9917 0.285918 13.528C0.170812 13.8263 0.166748 14.1248 0.166748 22.2151V30.5932L0.320118 30.9048C0.530509 31.3325 0.94185 31.7151 1.35888 31.8711C1.70301 31.9999 1.71395 32 16.1415 32C30.569 32 30.5799 31.9999 30.924 31.8711C31.3405 31.7153 31.749 31.3353 31.9615 30.9058L32.1162 30.5932V22.2151C32.1162 14.107 32.1123 13.827 31.9963 13.5261C31.8388 13.1177 31.4102 12.6674 31.0041 12.4838L30.6781 12.3364L16.2352 12.3247C4.71032 12.3153 1.74184 12.329 1.54226 12.3923ZM8.92902 16.1954C9.21475 16.3518 9.51611 16.6734 9.6471 16.9618C9.74901 17.1862 9.76133 17.4019 9.76133 18.9639C9.76133 20.5285 9.74914 20.7414 9.64666 20.9671C9.50211 21.2851 9.03431 21.7015 8.71325 21.7977C8.39776 21.8922 4.64654 21.8992 4.31048 21.8058C3.96248 21.7092 3.56996 21.3777 3.39014 21.0285C3.23277 20.723 3.23008 20.6943 3.21088 19.1045C3.18913 17.3031 3.22983 17.0222 3.57202 16.6093C3.67631 16.4834 3.90939 16.3065 4.08996 16.2161L4.41833 16.0518L6.57539 16.0698C8.4761 16.0857 8.75583 16.1006 8.92902 16.1954ZM5.07483 18.9314V19.9955H6.51437H7.9539L7.93677 18.9483L7.91964 17.901L6.49724 17.8842L5.07483 17.8673V18.9314ZM7.70081 26.9981V27.936H5.38745H3.07408V26.9981V26.0603H5.38745H7.70081V26.9981ZM14.891 26.9981V27.936H12.5776H10.2643V26.9981V26.0603H12.5776H14.891V26.9981ZM22.0187 26.9981V27.936H19.7053H17.3919V26.9981V26.0603H19.7053H22.0187V26.9981ZM29.2088 26.9981V27.936H26.8955H24.5821V26.9981V26.0603H26.8955H29.2088V26.9981Z" fill="#0199FF"/>
</svg>
