<svg width="32" height="32" viewBox="0 0 32 32" fill="none" xmlns="http://www.w3.org/2000/svg">
<path fill-rule="evenodd" clip-rule="evenodd" d="M6.21898 0.116132C5.41044 0.333831 4.63882 0.889538 4.21556 1.55884C4.09761 1.74541 3.13828 3.80987 2.08391 6.14644L0.166748 10.3948V11.2873C0.166748 12.1707 0.169461 12.1855 0.433428 12.7382C0.78286 13.47 1.28659 13.9658 2.07599 14.355C3.78224 15.1959 5.85013 14.9514 7.31062 13.7358L7.7428 13.376L8.16742 13.6987C9.17402 14.4638 10.3987 14.8708 11.6979 14.8718C13.0043 14.8728 13.9953 14.5254 15.1108 13.6755L15.6249 13.2839L16.139 13.6755C16.824 14.1975 17.3196 14.4531 18.0901 14.682C19.7001 15.1602 21.6701 14.7722 23.0823 13.6987L23.507 13.376L23.9391 13.7358C25.6222 15.1366 28.1441 15.2218 29.8881 13.9368C30.7908 13.2717 31.3414 11.8377 31.1297 10.7034C31.0558 10.3071 27.8312 2.61 27.3876 1.77097C26.9877 1.01449 26.117 0.3394 25.2399 0.105922C24.6858 -0.0416622 6.76898 -0.032023 6.21898 0.116132ZM15.0767 16.3539C13.9495 16.9372 12.8031 17.1752 11.3766 17.1219C10.2126 17.0784 9.30754 16.8717 8.38026 16.4376L7.80656 16.169L7.23536 16.4372C6.23569 16.9067 5.56688 17.0357 4.16516 17.0299C3.1824 17.0258 2.85282 16.9975 2.4337 16.8819L1.91605 16.7389L1.91691 22.8846C1.91784 29.4671 1.91191 29.3501 2.27948 30.1186C2.49453 30.5682 3.35612 31.4215 3.80815 31.6325C4.55257 31.98 4.68552 31.9916 7.96457 31.9924L11.05 31.9933L11.0705 27.7271L11.091 23.461L11.2775 23.0683C11.5148 22.5688 11.9124 22.1712 12.4119 21.9339L12.8046 21.7474H15.6249H18.4452L18.8379 21.9339C19.3374 22.1712 19.735 22.5688 19.9722 23.0683L20.1588 23.461L20.1793 27.7305L20.1998 32L23.4637 31.9788L26.7276 31.9576L27.138 31.7791C27.9454 31.4279 28.651 30.7741 28.9871 30.0655C29.3363 29.3296 29.332 29.4198 29.3328 22.8846L29.3337 16.7389L28.816 16.8825C28.3904 17.0005 28.0762 17.0264 27.0489 17.0283C25.6202 17.031 25.0485 16.919 24.0087 16.4329L23.432 16.1632L23.0805 16.3426C22.1005 16.8429 20.7795 17.1421 19.5504 17.1421C18.3442 17.1421 17.2702 16.8944 16.1961 16.3688C15.9016 16.2247 15.6445 16.1027 15.6249 16.0977C15.6052 16.0928 15.3586 16.208 15.0767 16.3539ZM9.27298 19.5875C9.61591 19.7604 9.91287 20.2161 9.91287 20.5693C9.91287 20.9225 9.61591 21.3781 9.27298 21.551C8.96646 21.7056 8.8827 21.7117 7.05686 21.7117C5.23102 21.7117 5.14726 21.7056 4.84074 21.551C4.49781 21.3781 4.20086 20.9225 4.20086 20.5693C4.20086 20.2161 4.49781 19.7604 4.84074 19.5875C5.14726 19.4329 5.23102 19.4269 7.05686 19.4269C8.8827 19.4269 8.96646 19.4329 9.27298 19.5875ZM13.3401 27.9949V31.9933H15.6249H17.9097V27.9949V23.9965H15.6249H13.3401V27.9949Z" fill="#0199FF"/>
</svg>
