<svg width="32" height="32" viewBox="0 0 32 32" fill="none" xmlns="http://www.w3.org/2000/svg">
<path fill-rule="evenodd" clip-rule="evenodd" d="M6.66626 2.71815C3.36653 4.22435 0.596428 5.52158 0.510435 5.60091C0.154731 5.92901 0.166797 5.74429 0.166797 10.8631C0.166797 13.7736 0.194728 15.9038 0.238724 16.3493C0.65369 20.5497 2.45601 24.3931 5.39749 27.3505C7.22901 29.1919 8.84094 30.2804 11.4209 31.4179C13.0795 32.1492 12.966 32.1608 15.4123 31.0074L16.159 30.6553L15.2427 29.7326C14.7294 29.2156 14.1666 28.5731 13.9628 28.2715L13.599 27.7333L13.3661 27.8284C13.0107 27.9736 12.6408 27.8871 11.8184 27.4664C9.00233 26.026 6.80464 23.8054 5.42909 21.0105C4.71362 19.5569 4.38158 18.5339 4.08747 16.8775C3.95668 16.141 3.94322 15.7835 3.91695 12.3671C3.88929 8.77331 3.89255 8.64712 4.02121 8.35634C4.0942 8.19122 4.22579 8.00911 4.31358 7.95158C4.40131 7.89405 6.32202 7.00666 8.5817 5.97947C11.9105 4.46633 12.7443 4.1119 12.9751 4.1119C13.2056 4.1119 14.0322 4.46273 17.318 5.95548C19.55 6.96946 21.4712 7.86252 21.5873 7.93998C21.9731 8.19756 22.0314 8.41694 22.0315 9.61144L22.0316 10.678L23.1149 10.6831C24.0815 10.6876 25.0263 10.7893 25.6147 10.9521L25.7647 10.9935V8.54933C25.7647 5.93088 25.7633 5.91868 25.419 5.59717C25.3318 5.51585 22.5767 4.22855 19.2965 2.73648C14.4422 0.528529 13.2704 0.0195711 12.9991 0.00163924C12.683 -0.0192257 12.3566 0.120696 6.66626 2.71815ZM9.48269 7.89198L6.03297 9.46332L6.03431 12.4705C6.03571 15.729 6.0793 16.3377 6.40434 17.6359C7.16808 20.6861 9.16185 23.398 11.8698 25.07C12.1957 25.2712 12.4695 25.4287 12.4782 25.4199C12.487 25.4111 12.4491 25.2553 12.394 25.0737C11.5623 22.3346 11.831 19.337 13.1378 16.7748C14.4075 14.2853 16.5554 12.3687 19.1889 11.3754L19.8652 11.1204L19.8838 10.2914L19.9024 9.46232L16.4374 7.88698C14.5316 7.02059 12.9634 6.31371 12.9524 6.31618C12.9414 6.31858 11.3801 7.02772 9.48269 7.89198ZM21.665 12.8815C20.3176 13.1092 18.8141 13.7387 17.7627 14.5155C15.4143 16.2504 14.0328 18.9646 14.0328 21.8438C14.0328 23.2569 14.3262 24.5105 14.9617 25.8128C15.8622 27.6581 17.2838 29.0798 19.1292 29.9803C21.6847 31.2274 24.5117 31.2274 27.0672 29.9803C28.9126 29.0798 30.3342 27.6581 31.2347 25.8128C32.9138 22.372 32.2921 18.3996 29.6289 15.5527C28.3814 14.2191 26.3915 13.1824 24.4981 12.8796C23.7336 12.7574 22.3944 12.7583 21.665 12.8815ZM27.073 18.6858C27.5371 18.9061 27.779 19.4398 27.6356 19.9272C27.565 20.1676 27.2123 20.5539 25.3086 22.4764C24.0745 23.7227 22.9479 24.8251 22.8049 24.9262C22.4915 25.1479 22.1371 25.1673 21.779 24.9825C21.643 24.9123 20.867 24.1848 20.0546 23.366C18.464 21.7626 18.4228 21.7022 18.5301 21.1304C18.5916 20.8023 18.9904 20.4035 19.3185 20.342C19.8699 20.2386 19.9847 20.3086 21.1342 21.4494C21.7223 22.0329 22.2282 22.5104 22.2586 22.5104C22.2889 22.5104 23.1276 21.6807 24.1225 20.6667C25.9454 18.8087 26.22 18.5822 26.6545 18.5788C26.759 18.578 26.9472 18.6262 27.073 18.6858Z" fill="#0199FF"/>
</svg>
