<svg width="127" height="47" viewBox="0 0 127 47" fill="none" xmlns="http://www.w3.org/2000/svg">
<path d="M34.6226 46.5C28.0235 46.5 24.724 41.8292 24.724 32.4877V12.7927C24.724 4.26423 28.5049 0 36.0667 0C39.1825 0 41.5718 0.622768 43.2347 1.8683C44.8976 3.09654 46.0442 4.89565 46.6743 7.26562C47.3045 9.6356 47.6195 12.5246 47.6195 15.9325H38.5874V11.8845C38.5874 10.8984 38.4473 10.0767 38.1673 9.41936C37.9047 8.7447 37.3446 8.40737 36.4868 8.40737C35.4191 8.40737 34.7102 8.762 34.3601 9.47126C34.0275 10.1805 33.8612 10.959 33.8612 11.8066V33.9408C33.8612 35.1691 34.0187 36.1724 34.3338 36.9509C34.6664 37.7121 35.3053 38.0926 36.2505 38.0926C37.2308 38.0926 37.8784 37.7121 38.1935 36.9509C38.5261 36.1724 38.6924 35.1518 38.6924 33.889V27.3758H36.2243V19.4874H47.5145V46.0848H43.8124L42.237 42.2444C40.6266 45.0815 38.0885 46.5 34.6226 46.5Z" fill="#E6E6DD"/>
<path d="M62.2181 46.5C58.5247 46.5 55.6977 45.4015 53.7373 43.2045C51.7943 40.9902 50.8228 37.7985 50.8228 33.6295V11.9364C50.8228 8.02679 51.7855 5.05999 53.711 3.03599C55.654 1.012 58.4897 0 62.2181 0C65.9465 0 68.7734 1.012 70.6989 3.03599C72.6418 5.05999 73.6133 8.02679 73.6133 11.9364V33.6295C73.6133 37.7985 72.6331 40.9902 70.6726 43.2045C68.7296 45.4015 65.9115 46.5 62.2181 46.5ZM62.2968 38.0926C63.6972 38.0926 64.3973 36.752 64.3973 34.0706V11.7807C64.3973 9.53181 63.7147 8.40737 62.3494 8.40737C60.809 8.40737 60.0388 9.55776 60.0388 11.8585V34.1225C60.0388 35.541 60.2138 36.5617 60.5639 37.1844C60.914 37.7899 61.4916 38.0926 62.2968 38.0926Z" fill="#E6E6DD"/>
<path d="M86.8728 46.5C80.2737 46.5 76.9741 41.8292 76.9741 32.4877V12.7927C76.9741 4.26423 80.7551 0 88.3169 0C91.4326 0 93.822 0.622768 95.4849 1.8683C97.1478 3.09654 98.2943 4.89565 98.9245 7.26562C99.5546 9.6356 99.8697 12.5246 99.8697 15.9325H90.8375V11.8845C90.8375 10.8984 90.6975 10.0767 90.4174 9.41936C90.1548 8.7447 89.5947 8.40737 88.737 8.40737C87.6692 8.40737 86.9603 8.762 86.6102 9.47126C86.2776 10.1805 86.1114 10.959 86.1114 11.8066V33.9408C86.1114 35.1691 86.2689 36.1724 86.584 36.9509C86.9165 37.7121 87.5555 38.0926 88.5007 38.0926C89.4809 38.0926 90.1286 37.7121 90.4436 36.9509C90.7762 36.1724 90.9425 35.1518 90.9425 33.889V27.3758H88.4744V19.4874H99.7647V46.0848H96.0625L94.4871 42.2444C92.8767 45.0815 90.3386 46.5 86.8728 46.5Z" fill="#E6E6DD"/>
<path d="M103.441 46.0848V0.415179H112.63V16.7369H116.989V0.415179H126.179V46.0848H116.989V25.3778H112.63V46.0848H103.441Z" fill="#E6E6DD"/>
<path d="M0 0V46.5H17.3263V0H0Z" fill="#0099FF"/>
<path d="M15.2126 30.1331C15.2126 31.1576 14.913 31.9417 14.3138 32.4855C13.7099 33.0245 12.8395 33.2939 11.7024 33.2939H5.78614C4.71989 33.2939 3.91076 33.0269 3.35876 32.4928C2.80676 31.9539 2.53076 31.1673 2.53076 30.1331C2.53076 29.0989 2.80676 28.3147 3.35876 27.7806C3.91076 27.2417 4.71989 26.9722 5.78614 26.9722H11.7024C12.8395 26.9722 13.7099 27.2441 14.3138 27.7879C14.913 28.3269 15.2126 29.1086 15.2126 30.1331ZM12.9197 30.1112C12.9197 29.7228 12.554 29.5286 11.8227 29.5286H5.74368C5.13035 29.5286 4.82368 29.7179 4.82368 30.0967C4.82368 30.5239 5.13742 30.7376 5.76491 30.7376H11.8369C12.2238 30.7376 12.5021 30.689 12.672 30.5919C12.8371 30.4948 12.9197 30.3346 12.9197 30.1112Z" fill="white"/>
<path d="M15.0993 25.938H2.64399V23.3015L8.60983 22.1216H2.64399L2.64399 19.6454H15.0993V22.1508L8.87167 23.4326H15.0993V25.938Z" fill="white"/>
<path d="M15.0993 18.5092H2.64399L2.64399 13.3819H5.05014L5.05014 15.9019H7.47752V13.4839H9.81998V15.9019H12.672V13.2144H15.0993L15.0993 18.5092Z" fill="white"/>
</svg>
