<svg width="93" height="34" viewBox="0 0 93 34" fill="none" xmlns="http://www.w3.org/2000/svg">
<path d="M25.3155 34C20.4903 34 18.0778 30.5848 18.0778 23.7545V9.35379C18.0778 3.11793 20.8423 0 26.3714 0C28.6496 0 30.3966 0.455357 31.6125 1.36607C32.8284 2.26414 33.6667 3.57961 34.1274 5.3125C34.5882 7.04539 34.8186 9.15774 34.8186 11.6496H28.2144V8.68973C28.2144 7.96875 28.112 7.36793 27.9072 6.88728C27.7153 6.39397 27.3057 6.14732 26.6785 6.14732C25.8978 6.14732 25.3795 6.40662 25.1235 6.92522C24.8803 7.44382 24.7587 8.01302 24.7587 8.63281V24.817C24.7587 25.715 24.8739 26.4487 25.1043 27.0179C25.3475 27.5744 25.8146 27.8527 26.5058 27.8527C27.2225 27.8527 27.6961 27.5744 27.9264 27.0179C28.1696 26.4487 28.2912 25.7024 28.2912 24.779V20.0167H26.4866V14.2489H34.7418V33.6964H32.0348L30.883 30.8884C29.7055 32.9628 27.8496 34 25.3155 34Z" fill="#1C1C1C"/>
<path d="M45.4928 34C42.7922 34 40.7252 33.1968 39.2918 31.5904C37.8711 29.9714 37.1608 27.6376 37.1608 24.5893V8.72768C37.1608 5.86905 37.8647 3.69978 39.2726 2.21987C40.6932 0.739955 42.7666 0 45.4928 0C48.2189 0 50.2859 0.739955 51.6938 2.21987C53.1145 3.69978 53.8248 5.86905 53.8248 8.72768V24.5893C53.8248 27.6376 53.1081 29.9714 51.6746 31.5904C50.2539 33.1968 48.1933 34 45.4928 34ZM45.5504 27.8527C46.5743 27.8527 47.0862 26.8724 47.0862 24.9118V8.61384C47.0862 6.96949 46.5871 6.14732 45.5888 6.14732C44.4625 6.14732 43.8993 6.98847 43.8993 8.67076V24.9498C43.8993 25.987 44.0273 26.7333 44.2833 27.1886C44.5393 27.6313 44.9616 27.8527 45.5504 27.8527Z" fill="#1C1C1C"/>
<path d="M63.5199 34C58.6947 34 56.2822 30.5848 56.2822 23.7545V9.35379C56.2822 3.11793 59.0467 0 64.5758 0C66.854 0 68.601 0.455357 69.8169 1.36607C71.0328 2.26414 71.8711 3.57961 72.3319 5.3125C72.7926 7.04539 73.023 9.15774 73.023 11.6496H66.4188V8.68973C66.4188 7.96875 66.3164 7.36793 66.1116 6.88728C65.9197 6.39397 65.5101 6.14732 64.883 6.14732C64.1022 6.14732 63.5839 6.40662 63.3279 6.92522C63.0847 7.44382 62.9631 8.01302 62.9631 8.63281V24.817C62.9631 25.715 63.0783 26.4487 63.3087 27.0179C63.5519 27.5744 64.019 27.8527 64.7102 27.8527C65.4269 27.8527 65.9005 27.5744 66.1308 27.0179C66.374 26.4487 66.4956 25.7024 66.4956 24.779V20.0167H64.691V14.2489H72.9462V33.6964H70.2392L69.0874 30.8884C67.9099 32.9628 66.054 34 63.5199 34Z" fill="#1C1C1C"/>
<path d="M75.6339 33.6964V0.303571H82.3533V12.2377H85.5402V0.303571H92.2596V33.6964H85.5402V18.5558H82.3533V33.6964H75.6339Z" fill="#1C1C1C"/>
<path d="M0 0V34H12.6687V0H0Z" fill="#0099FF"/>
<path d="M11.1232 22.0328C11.1232 22.7819 10.9041 23.3553 10.466 23.7529C10.0245 24.147 9.388 24.344 8.55663 24.344H4.23074C3.45111 24.344 2.85949 24.1487 2.45588 23.7582C2.05227 23.3641 1.85046 22.789 1.85046 22.0328C1.85046 21.2766 2.05227 20.7033 2.45588 20.3128C2.85949 19.9187 3.45111 19.7216 4.23074 19.7216H8.55663C9.388 19.7216 10.0245 19.9205 10.466 20.3181C10.9041 20.7121 11.1232 21.2837 11.1232 22.0328ZM9.44665 22.0168C9.44665 21.7328 9.1793 21.5908 8.6446 21.5908H4.19969C3.75123 21.5908 3.52701 21.7293 3.52701 22.0062C3.52701 22.3186 3.75641 22.4748 4.21522 22.4748H8.65495C8.93782 22.4748 9.14135 22.4393 9.26554 22.3683C9.38628 22.2973 9.44665 22.1802 9.44665 22.0168Z" fill="white"/>
<path d="M11.0404 18.9655H1.93326L1.93326 17.0377L6.29537 16.175H1.93326V14.3644H11.0404V16.1963L6.48683 17.1336H11.0404V18.9655Z" fill="white"/>
<path d="M11.0404 13.5337H1.93326L1.93326 9.78466H3.69259V11.6272H5.46745V9.85921H7.18021V11.6272H9.26554V9.66218H11.0404V13.5337Z" fill="white"/>
</svg>
