<svg width="588" height="440" viewBox="0 0 588 440" fill="none" xmlns="http://www.w3.org/2000/svg">
<g style="mix-blend-mode:color-dodge">
<path d="M46.4536 377.651H186.29L245.211 438.999H349.161L430.664 523.794L430.03 524.453L348.753 439.941H244.849L185.883 378.593H46.4536V377.651Z" fill="#0A0826"/>
<path d="M46.6346 381.747C44.734 381.747 43.1953 380.1 43.1953 378.122C43.1953 376.145 44.734 374.544 46.6346 374.544C48.5353 374.544 50.074 376.145 50.074 378.122C50.074 380.1 48.5353 381.747 46.6346 381.747Z" fill="#0A0826"/>
</g>
<g style="mix-blend-mode:color-dodge">
<path d="M478.453 -83.8928H572.853V-82.9041H478.815L426.817 -28.807H322.913L263.947 32.5407H121.033L68.4021 87.297L67.7686 86.5908L120.671 31.552H263.585L322.506 -29.7486H426.455L478.453 -83.8928Z" fill="#0A0826"/>
<path d="M70.6647 89.3683C69.3071 90.7808 67.1349 90.7808 65.7773 89.3683C64.4196 87.9558 64.4196 85.6488 65.7773 84.2835C67.1349 82.871 69.3071 82.871 70.6647 84.2835C72.0223 85.6488 72.0223 87.9558 70.6647 89.3683Z" fill="#0A0826"/>
</g>
<g style="mix-blend-mode:color-dodge">
<path d="M3.64285 305.851L51.2506 355.381H214.936L263.901 406.323H329.656L355.994 378.922H555.249V379.863H356.356L330.018 407.265H263.494L214.574 356.369H50.8885L3.00928 306.557L3.64285 305.851Z" fill="#0A0826"/>
<path d="M1.01823 308.864C-0.339408 307.451 -0.339408 305.192 1.01823 303.779C2.37586 302.367 4.54804 302.367 5.90567 303.779C7.26331 305.192 7.26331 307.451 5.90567 308.864C4.54804 310.276 2.37586 310.276 1.01823 308.864Z" fill="#0A0826"/>
<path d="M555.068 382.971C556.969 382.971 558.508 381.37 558.508 379.393C558.508 377.416 556.969 375.815 555.068 375.815C553.168 375.815 551.584 377.416 551.584 379.393C551.584 381.37 553.168 382.971 555.068 382.971Z" fill="#0A0826"/>
</g>
<g style="mix-blend-mode:color-dodge">
<path d="M133.885 44.8293H189.231L230.141 87.3914H310.287L350.156 128.871H469.719V129.859H349.794L309.925 88.333H229.734L188.824 45.771H134.293L78.0865 104.247L77.4077 103.588L133.885 44.8293Z" fill="#0A0826"/>
<path d="M80.3039 106.319C78.9915 107.731 76.7741 107.731 75.4164 106.319C74.0588 104.953 74.0588 102.646 75.4164 101.234C76.7741 99.8214 78.9915 99.8214 80.3039 101.234C81.6616 102.646 81.6616 104.953 80.3039 106.319Z" fill="#0A0826"/>
<path d="M469.538 132.966C471.483 132.966 473.022 131.366 473.022 129.388C473.022 127.364 471.483 125.763 469.538 125.763C467.637 125.763 466.098 127.364 466.098 129.388C466.098 131.366 467.637 132.966 469.538 132.966Z" fill="#0A0826"/>
</g>
<g style="mix-blend-mode:color-dodge">
<path d="M9.61648 282.593L56.138 330.946H211.949L264.082 385.184H311.69L349.93 345.447H499.948V346.389H350.292L312.097 386.126H263.675L211.542 331.888H55.7307L8.98291 283.252L9.61648 282.593Z" fill="#0A0826"/>
<path d="M499.768 342.293C501.668 342.293 503.207 343.941 503.207 345.918C503.207 347.896 501.668 349.497 499.768 349.497C497.867 349.497 496.283 347.896 496.283 345.918C496.283 343.941 497.867 342.293 499.768 342.293Z" fill="#0A0826"/>
<path d="M11.8794 280.521C10.5217 279.109 8.34949 279.109 6.99186 280.521C5.63422 281.887 5.63422 284.194 6.99186 285.606C8.34949 286.971 10.5217 286.971 11.8794 285.606C13.237 284.194 13.237 281.887 11.8794 280.521Z" fill="#0A0826"/>
</g>
<g style="mix-blend-mode:color-dodge">
<path d="M140.945 92.2407H208.646L287.117 173.881H448.902L487.911 133.249L488.59 133.955L449.309 174.822H286.71L208.284 93.2294H141.307L102.841 133.249H33.4204V132.307H102.433L140.945 92.2407Z" fill="#0A0826"/>
<path d="M33.6015 136.356C31.7008 136.356 30.1621 134.755 30.1621 132.778C30.1621 130.8 31.7008 129.153 33.6015 129.153C35.5022 129.153 37.0861 130.8 37.0861 132.778C37.0861 134.755 35.5022 136.356 33.6015 136.356Z" fill="#0A0826"/>
<path d="M490.581 136.263C491.939 134.85 491.939 132.59 490.581 131.178C489.223 129.765 487.051 129.765 485.694 131.178C484.336 132.59 484.336 134.85 485.694 136.263C487.051 137.675 489.223 137.675 490.581 136.263Z" fill="#0A0826"/>
</g>
<g style="mix-blend-mode:color-dodge">
<path d="M126.011 75.5269H163.255V76.4685H126.373L84.0148 120.584L83.3359 119.925L126.011 75.5269Z" fill="#0A0826"/>
<path d="M86.2323 122.656C84.8747 124.069 82.7025 124.069 81.3449 122.656C79.9873 121.244 79.9873 118.984 81.3449 117.571C82.7025 116.159 84.8747 116.159 86.2323 117.571C87.59 118.984 87.59 121.244 86.2323 122.656Z" fill="#0A0826"/>
<path d="M163.074 79.6227C164.975 79.6227 166.559 78.022 166.559 75.9974C166.559 74.02 164.975 72.4192 163.074 72.4192C161.174 72.4192 159.635 74.02 159.635 75.9974C159.635 78.022 161.174 79.6227 163.074 79.6227Z" fill="#0A0826"/>
</g>
<g style="mix-blend-mode:color-dodge">
<path d="M9.61673 253.825L59.4871 305.662H200.002L247.067 354.675H325.176L365.905 312.301H534.795L584.71 364.232L584.077 364.938L534.433 313.243H366.267L325.538 355.616H246.705L199.595 306.651H59.1251L8.98315 254.484L9.61673 253.825Z" fill="#0A0826"/>
<path d="M6.99186 256.839C5.63422 255.426 5.63422 253.119 6.99186 251.754C8.34949 250.341 10.5217 250.341 11.8794 251.754C13.237 253.119 13.237 255.426 11.8794 256.839C10.5217 258.204 8.34949 258.204 6.99186 256.839Z" fill="#0A0826"/>
<path d="M581.859 367.01C583.171 368.423 585.389 368.423 586.747 367.01C588.059 365.598 588.059 363.291 586.747 361.925C585.389 360.513 583.171 360.513 581.859 361.925C580.501 363.291 580.501 365.598 581.859 367.01Z" fill="#0A0826"/>
</g>
<g style="mix-blend-mode:color-dodge">
<path d="M30.5694 243.703L71.0722 285.841H197.015L246.116 336.972H322.189L384.097 272.564L384.731 273.223L322.551 337.914H245.754L196.608 286.83H70.7102L29.8906 244.362L30.5694 243.703Z" fill="#0A0826"/>
<path d="M27.8993 246.716C26.5417 245.304 26.5417 243.044 27.8993 241.632C29.257 240.219 31.4292 240.219 32.7868 241.632C34.1445 243.044 34.1445 245.304 32.7868 246.716C31.4292 248.129 29.257 248.129 27.8993 246.716Z" fill="#0A0826"/>
<path d="M386.722 275.578C388.08 274.165 388.08 271.905 386.722 270.493C385.364 269.08 383.192 269.08 381.834 270.493C380.477 271.905 380.477 274.165 381.834 275.578C383.192 276.99 385.364 276.99 386.722 275.578Z" fill="#0A0826"/>
</g>
<g style="mix-blend-mode:color-dodge">
<path d="M167.464 116.723H214.619L304.449 210.228H542.985V211.17H304.087L214.257 117.712H167.871L134.202 152.694H43.0595L3.64285 193.655L3.00928 192.996L42.6522 151.752H133.84L167.464 116.723Z" fill="#0A0826"/>
<path d="M5.90567 195.727C4.54804 197.139 2.37586 197.139 1.01823 195.727C-0.339408 194.362 -0.339408 192.055 1.01823 190.642C2.37586 189.277 4.54804 189.277 5.90567 190.642C7.26331 192.055 7.26331 194.362 5.90567 195.727Z" fill="#0A0826"/>
<path d="M542.804 214.277C544.705 214.277 546.244 212.676 546.244 210.699C546.244 208.721 544.705 207.073 542.804 207.073C540.904 207.073 539.32 208.721 539.32 210.699C539.32 212.676 540.904 214.277 542.804 214.277Z" fill="#0A0826"/>
</g>
<g style="mix-blend-mode:color-dodge">
<path d="M212.311 228.684H244.351V229.672H212.673L183.529 259.993H74.5566V259.004H183.167L212.311 228.684Z" fill="#0A0826"/>
<path d="M74.6923 263.1C72.7916 263.1 71.2529 261.499 71.2529 259.522C71.2529 257.497 72.7916 255.896 74.6923 255.896C76.6382 255.896 78.1769 257.497 78.1769 259.522C78.1769 261.499 76.6382 263.1 74.6923 263.1Z" fill="#0A0826"/>
<path d="M244.17 232.78C246.071 232.78 247.61 231.179 247.61 229.201C247.61 227.177 246.071 225.576 244.17 225.576C242.27 225.576 240.731 227.177 240.731 229.201C240.731 231.179 242.27 232.78 244.17 232.78Z" fill="#0A0826"/>
</g>
<g style="mix-blend-mode:color-dodge">
<path d="M214.393 258.487L259.014 304.91H323.547V305.852H258.652L213.759 259.146L214.393 258.487Z" fill="#0A0826"/>
<path d="M211.768 261.5C210.411 260.087 210.411 257.78 211.768 256.415C213.126 255.002 215.298 255.002 216.656 256.415C218.013 257.78 218.013 260.087 216.656 261.5C215.298 262.865 213.126 262.865 211.768 261.5Z" fill="#0A0826"/>
<path d="M323.366 308.958C325.312 308.958 326.85 307.358 326.85 305.38C326.85 303.403 325.312 301.802 323.366 301.802C321.465 301.802 319.926 303.403 319.926 305.38C319.926 307.358 321.465 308.958 323.366 308.958Z" fill="#0A0826"/>
</g>
<g style="mix-blend-mode:color-dodge">
<path d="M244.306 253.825L275.487 286.218H332.507V287.206H275.079L243.627 254.484L244.306 253.825Z" fill="#0A0826"/>
<path d="M241.636 256.839C240.279 255.426 240.279 253.119 241.636 251.707C242.994 250.341 245.166 250.341 246.524 251.707C247.881 253.119 247.881 255.426 246.524 256.839C245.166 258.204 242.994 258.204 241.636 256.839Z" fill="#0A0826"/>
<path d="M332.371 290.314C334.272 290.314 335.811 288.713 335.811 286.736C335.811 284.711 334.272 283.11 332.371 283.11C330.425 283.11 328.887 284.711 328.887 286.736C328.887 288.713 330.425 290.314 332.371 290.314Z" fill="#0A0826"/>
</g>
<g style="mix-blend-mode:color-dodge">
<path d="M500.22 117.1H539.953V118.041H500.22V117.1Z" fill="#0A0826"/>
<path d="M500.401 121.149C498.455 121.149 496.917 119.548 496.917 117.57C496.917 115.593 498.455 113.992 500.401 113.992C502.302 113.992 503.84 115.593 503.84 117.57C503.84 119.548 502.302 121.149 500.401 121.149Z" fill="#0A0826"/>
<path d="M539.818 121.149C541.718 121.149 543.257 119.548 543.257 117.57C543.257 115.593 541.718 113.992 539.818 113.992C537.872 113.992 536.333 115.593 536.333 117.57C536.333 119.548 537.872 121.149 539.818 121.149Z" fill="#0A0826"/>
</g>
<g style="mix-blend-mode:color-dodge">
<path d="M266.39 111.874L306.531 153.636H435.371V154.577H306.169L265.757 112.533L266.39 111.874Z" fill="#0A0826"/>
<path d="M263.766 114.887C262.408 113.475 262.408 111.215 263.766 109.803C265.123 108.39 267.295 108.39 268.653 109.803C270.011 111.215 270.011 113.475 268.653 114.887C267.295 116.3 265.123 116.3 263.766 114.887Z" fill="#0A0826"/>
<path d="M435.189 157.732C437.09 157.732 438.629 156.084 438.629 154.107C438.629 152.129 437.09 150.528 435.189 150.528C433.289 150.528 431.705 152.129 431.705 154.107C431.705 156.084 433.289 157.732 435.189 157.732Z" fill="#0A0826"/>
</g>
<g style="mix-blend-mode:color-dodge">
<path d="M478.045 -59.4099H565.386V-58.4683H478.453L411.929 10.7421H335.675L292.366 55.8466H210.229V54.9049H291.959L335.313 9.80047H411.521L478.045 -59.4099Z" fill="#0A0826"/>
<path d="M210.411 58.954C208.51 58.954 206.971 57.3532 206.971 55.3758C206.971 53.3984 208.51 51.7505 210.411 51.7505C212.311 51.7505 213.895 53.3984 213.895 55.3758C213.895 57.3532 212.311 58.954 210.411 58.954Z" fill="#0A0826"/>
</g>
<g style="mix-blend-mode:color-dodge">
<path d="M569.007 46.5715L569.64 47.2307L518.05 100.951H363.733L333.819 69.83H240.143V68.8883H334.181L364.095 100.009H517.643L569.007 46.5715Z" fill="#0A0826"/>
<path d="M240.324 72.9848C238.423 72.9848 236.839 71.3369 236.839 69.3595C236.839 67.382 238.423 65.7812 240.324 65.7812C242.224 65.7812 243.763 67.382 243.763 69.3595C243.763 71.3369 242.224 72.9848 240.324 72.9848Z" fill="#0A0826"/>
<path d="M571.677 49.5846C572.989 48.1722 572.989 45.8651 571.677 44.4998C570.319 43.0873 568.102 43.0873 566.789 44.4998C565.432 45.8651 565.432 48.1722 566.789 49.5846C568.102 50.9971 570.319 50.9971 571.677 49.5846Z" fill="#0A0826"/>
</g>
<g style="mix-blend-mode:color-dodge">
<path d="M483.295 -11.999H555.43L580.863 14.5081L580.23 15.1672L555.023 -11.0103H483.657L429.849 44.9701H341.784V43.9813H429.487L483.295 -11.999Z" fill="#0A0826"/>
<path d="M341.965 48.0776C340.019 48.0776 338.481 46.4768 338.481 44.4993C338.481 42.4748 340.019 40.874 341.965 40.874C343.866 40.874 345.405 42.4748 345.405 44.4993C345.405 46.4768 343.866 48.0776 341.965 48.0776Z" fill="#0A0826"/>
<path d="M577.967 17.2858C579.325 18.6512 581.542 18.6512 582.855 17.2858C584.212 15.8733 584.212 13.5663 582.855 12.2009C581.542 10.7885 579.325 10.7885 577.967 12.2009C576.61 13.5663 576.61 15.8733 577.967 17.2858Z" fill="#0A0826"/>
</g>
<g style="mix-blend-mode:color-dodge">
<path d="M503.479 24.5842H539.954V25.5259H503.841L462.75 68.2762H371.652V67.3346H462.342L503.479 24.5842Z" fill="#0A0826"/>
<path d="M371.833 71.384C369.933 71.384 368.394 69.7832 368.394 67.8058C368.394 65.8283 369.933 64.2275 371.833 64.2275C373.734 64.2275 375.318 65.8283 375.318 67.8058C375.318 69.7832 373.734 71.384 371.833 71.384Z" fill="#0A0826"/>
<path d="M539.818 28.6332C541.719 28.6332 543.257 27.0324 543.257 25.055C543.257 23.0776 541.719 21.4297 539.818 21.4297C537.872 21.4297 536.333 23.0776 536.333 25.055C536.333 27.0324 537.872 28.6332 539.818 28.6332Z" fill="#0A0826"/>
</g>
<g style="mix-blend-mode:color-dodge">
<path d="M577.967 116.535L578.646 117.194L512.077 186.452H337.304V185.51H511.669L577.967 116.535Z" fill="#0A0826"/>
<path d="M337.485 189.606C335.539 189.606 334 187.958 334 185.981C334 184.003 335.539 182.403 337.485 182.403C339.386 182.403 340.924 184.003 340.924 185.981C340.924 187.958 339.386 189.606 337.485 189.606Z" fill="#0A0826"/>
<path d="M580.637 119.548C581.995 118.136 581.995 115.876 580.637 114.463C579.28 113.051 577.107 113.051 575.75 114.463C574.392 115.876 574.392 118.136 575.75 119.548C577.107 120.961 579.28 120.961 580.637 119.548Z" fill="#0A0826"/>
</g>
<g style="mix-blend-mode:color-dodge">
<path d="M194.074 147.421H222.086L303.952 232.545H557.919V233.486H303.544L221.724 148.362H194.436L162.305 181.79H74.1042L48.1734 208.768L47.5398 208.109L73.7421 180.849H161.943L194.074 147.421Z" fill="#0A0826"/>
<path d="M50.436 210.887C49.0784 212.253 46.9061 212.253 45.5485 210.887C44.1909 209.475 44.1909 207.168 45.5485 205.802C46.9061 204.39 49.0784 204.39 50.436 205.802C51.7936 207.168 51.7936 209.475 50.436 210.887Z" fill="#0A0826"/>
<path d="M557.738 236.641C559.639 236.641 561.178 234.993 561.178 233.015C561.178 231.038 559.639 229.437 557.738 229.437C555.838 229.437 554.299 231.038 554.299 233.015C554.299 234.993 555.838 236.641 557.738 236.641Z" fill="#0A0826"/>
</g>
<g style="mix-blend-mode:color-dodge">
<path d="M196.699 173.457H226.566L305.626 255.662H571.36V256.651H305.219L226.204 174.399H197.061L174.252 198.128H80.8471L57.1338 222.799L56.5002 222.093L80.4851 197.186H173.89L196.699 173.457Z" fill="#0A0826"/>
<path d="M59.3965 224.87C58.0388 226.283 55.8666 226.283 54.5089 224.87C53.1513 223.458 53.1513 221.198 54.5089 219.786C55.8666 218.373 58.0388 218.373 59.3965 219.786C60.7541 221.198 60.7541 223.458 59.3965 224.87Z" fill="#0A0826"/>
<path d="M571.179 259.758C573.08 259.758 574.664 258.157 574.664 256.18C574.664 254.155 573.08 252.554 571.179 252.554C569.278 252.554 567.74 254.155 567.74 256.18C567.74 258.157 569.278 259.758 571.179 259.758Z" fill="#0A0826"/>
</g>
<g style="mix-blend-mode:color-dodge">
<path d="M198.328 206.743L199.007 207.403L168.279 239.324H72.7466V238.382H167.917L198.328 206.743Z" fill="#0A0826"/>
<path d="M72.9274 242.479C70.9815 242.479 69.4429 240.831 69.4429 238.854C69.4429 236.876 70.9815 235.275 72.9274 235.275C74.8281 235.275 76.3668 236.876 76.3668 238.854C76.3668 240.831 74.8281 242.479 72.9274 242.479Z" fill="#0A0826"/>
<path d="M200.997 209.757C202.355 208.344 202.355 206.037 200.997 204.625C199.64 203.259 197.422 203.259 196.11 204.625C194.752 206.037 194.752 208.344 196.11 209.757C197.422 211.122 199.64 211.122 200.997 209.757Z" fill="#0A0826"/>
</g>
<g style="mix-blend-mode:color-dodge">
<path d="M277.523 418.753H371.561L443.38 493.472L442.701 494.131L371.199 419.742H277.523V418.753Z" fill="#0A0826"/>
<path d="M277.659 422.849C275.758 422.849 274.219 421.248 274.219 419.224C274.219 417.246 275.758 415.646 277.659 415.646C279.605 415.646 281.143 417.246 281.143 419.224C281.143 421.248 279.605 422.849 277.659 422.849Z" fill="#0A0826"/>
</g>
<g style="mix-blend-mode:color-dodge">
<path d="M403.557 417.812L449.671 465.788H576.972V466.777H449.264L402.878 418.518L403.557 417.812Z" fill="#0A0826"/>
<path d="M400.886 420.825C399.529 419.412 399.529 417.152 400.886 415.74C402.244 414.328 404.416 414.328 405.774 415.74C407.132 417.152 407.132 419.412 405.774 420.825C404.416 422.237 402.244 422.237 400.886 420.825Z" fill="#0A0826"/>
</g>
</svg>
