<svg width="588" height="615" viewBox="0 0 588 615" fill="none" xmlns="http://www.w3.org/2000/svg">
<g style="mix-blend-mode:color-dodge">
<path d="M541.383 149.933H401.592L342.626 88.585H238.722L157.219 3.7905L157.852 3.13135L239.084 87.6433H343.033L401.955 148.944H541.383V149.933Z" fill="#A6C8DE"/>
<path d="M541.248 145.836C543.148 145.836 544.687 147.437 544.687 149.462C544.687 151.439 543.148 153.04 541.248 153.04C539.302 153.04 537.763 151.439 537.763 149.462C537.763 147.437 539.302 145.836 541.248 145.836Z" fill="#A6C8DE"/>
<path d="M160.115 1.05946C158.757 -0.352992 156.54 -0.352992 155.227 1.05946C153.87 2.42484 153.87 4.73185 155.227 6.14431C156.54 7.50968 158.757 7.50968 160.115 6.14431C161.473 4.73185 161.473 2.42484 160.115 1.05946Z" fill="#A6C8DE"/>
</g>
<g style="mix-blend-mode:color-dodge">
<path d="M109.43 611.476H15.0292V610.488H109.023L161.065 556.39H264.969L323.936 495.043H466.804L519.435 440.286L520.114 440.993L467.212 496.031H324.298L265.377 557.332H161.427L109.43 611.476Z" fill="#A6C8DE"/>
<path d="M517.218 438.215C518.575 436.802 520.748 436.802 522.105 438.215C523.463 439.627 523.463 441.887 522.105 443.3C520.748 444.712 518.575 444.712 517.218 443.3C515.86 441.887 515.86 439.627 517.218 438.215Z" fill="#A6C8DE"/>
<path d="M15.1648 607.38C13.2641 607.38 11.7255 608.981 11.7255 610.959C11.7255 612.983 13.2641 614.584 15.1648 614.584C17.1107 614.584 18.6494 612.983 18.6494 610.959C18.6494 608.981 17.1107 607.38 15.1648 607.38Z" fill="#A6C8DE"/>
</g>
<g style="mix-blend-mode:color-dodge">
<path d="M584.194 221.732L536.587 172.202H372.946L323.981 121.26H258.226L231.888 148.661H32.6331V147.72H231.481L257.864 120.318H324.343L373.309 171.214H536.994L584.873 221.026L584.194 221.732Z" fill="#A6C8DE"/>
<path d="M586.864 218.719C588.222 220.132 588.222 222.392 586.864 223.804C585.507 225.217 583.334 225.217 581.977 223.804C580.619 222.392 580.619 220.132 581.977 218.719C583.334 217.307 585.507 217.307 586.864 218.719Z" fill="#A6C8DE"/>
<path d="M32.8141 144.565C30.9134 144.565 29.3295 146.213 29.3295 148.191C29.3295 150.168 30.9134 151.769 32.8141 151.769C34.7147 151.769 36.2534 150.168 36.2534 148.191C36.2534 146.213 34.7147 144.565 32.8141 144.565Z" fill="#A6C8DE"/>
</g>
<g style="mix-blend-mode:color-dodge">
<path d="M453.952 482.754H398.651L357.741 440.192H277.595L237.681 398.666H118.119V397.724H238.088L277.957 439.251H358.103L399.013 481.813H453.59L509.796 423.337L510.429 423.996L453.952 482.754Z" fill="#A6C8DE"/>
<path d="M507.533 421.266C508.891 419.853 511.063 419.853 512.421 421.266C513.778 422.631 513.778 424.938 512.421 426.351C511.063 427.716 508.891 427.716 507.533 426.351C506.175 424.938 506.175 422.631 507.533 421.266Z" fill="#A6C8DE"/>
<path d="M118.3 394.617C116.399 394.617 114.86 396.218 114.86 398.195C114.86 400.22 116.399 401.821 118.3 401.821C120.246 401.821 121.784 400.22 121.784 398.195C121.784 396.218 120.246 394.617 118.3 394.617Z" fill="#A6C8DE"/>
</g>
<g style="mix-blend-mode:color-dodge">
<path d="M578.221 244.991L531.744 196.638H375.933L323.8 142.399H276.147L237.953 182.136H87.9341V181.195H237.591L275.785 141.458H324.162L376.295 195.696H532.106L578.9 244.332L578.221 244.991Z" fill="#A6C8DE"/>
<path d="M88.115 185.291C86.2143 185.291 84.6304 183.643 84.6304 181.666C84.6304 179.688 86.2143 178.088 88.115 178.088C90.0156 178.088 91.5543 179.688 91.5543 181.666C91.5543 183.643 90.0156 185.291 88.115 185.291Z" fill="#A6C8DE"/>
<path d="M576.003 247.062C577.361 248.475 579.533 248.475 580.891 247.062C582.248 245.697 582.248 243.39 580.891 241.977C579.533 240.565 577.361 240.565 576.003 241.977C574.645 243.39 574.645 245.697 576.003 247.062Z" fill="#A6C8DE"/>
</g>
<g style="mix-blend-mode:color-dodge">
<path d="M446.937 435.342H379.237L300.766 353.703H138.981L99.9263 394.334L99.2927 393.628L138.574 352.761H301.173L379.599 434.354H446.53L485.042 394.334H554.417V395.276H485.404L446.937 435.342Z" fill="#A6C8DE"/>
<path d="M554.236 391.227C556.182 391.227 557.72 392.828 557.72 394.805C557.72 396.783 556.182 398.383 554.236 398.383C552.335 398.383 550.796 396.783 550.796 394.805C550.796 392.828 552.335 391.227 554.236 391.227Z" fill="#A6C8DE"/>
<path d="M97.3017 391.321C95.944 392.686 95.944 394.993 97.3017 396.406C98.6141 397.818 100.832 397.818 102.189 396.406C103.547 394.993 103.547 392.686 102.189 391.321C100.832 389.908 98.6141 389.908 97.3017 391.321Z" fill="#A6C8DE"/>
</g>
<g style="mix-blend-mode:color-dodge">
<path d="M461.871 452.056H424.627V451.068H461.509L503.868 406.999L504.546 407.658L461.871 452.056Z" fill="#A6C8DE"/>
<path d="M501.65 404.928C502.962 403.515 505.18 403.515 506.538 404.928C507.85 406.34 507.85 408.6 506.538 410.012C505.18 411.425 502.962 411.425 501.65 410.012C500.292 408.6 500.292 406.34 501.65 404.928Z" fill="#A6C8DE"/>
<path d="M424.763 447.96C422.862 447.96 421.323 449.561 421.323 451.586C421.323 453.563 422.862 455.164 424.763 455.164C426.709 455.164 428.247 453.563 428.247 451.586C428.247 449.561 426.709 447.96 424.763 447.96Z" fill="#A6C8DE"/>
</g>
<g style="mix-blend-mode:color-dodge">
<path d="M578.221 273.758L528.395 221.921H387.88L340.816 172.908H262.707L221.978 215.282H53.088L3.12708 163.351L3.80589 162.645L53.45 214.341H221.616L262.345 171.967H341.178L388.242 220.932H528.757L578.899 273.099L578.221 273.758Z" fill="#A6C8DE"/>
<path d="M580.891 270.744C582.248 272.157 582.248 274.464 580.891 275.829C579.533 277.242 577.361 277.242 576.003 275.829C574.645 274.464 574.645 272.157 576.003 270.744C577.361 269.332 579.533 269.332 580.891 270.744Z" fill="#A6C8DE"/>
<path d="M6.02338 160.573C4.66575 159.161 2.49353 159.161 1.1359 160.573C-0.221733 161.985 -0.221733 164.245 1.1359 165.658C2.49353 167.07 4.66575 167.07 6.02338 165.658C7.38102 164.245 7.38102 161.985 6.02338 160.573Z" fill="#A6C8DE"/>
</g>
<g style="mix-blend-mode:color-dodge">
<path d="M557.313 283.88L516.81 241.742H390.867L341.721 190.611H265.694L203.785 255.019L203.152 254.313L265.331 189.67H342.128L391.229 240.753H517.172L557.947 283.221L557.313 283.88Z" fill="#A6C8DE"/>
<path d="M559.938 280.867C561.295 282.28 561.295 284.54 559.938 285.952C558.625 287.364 556.408 287.364 555.05 285.952C553.693 284.54 553.693 282.28 555.05 280.867C556.408 279.455 558.625 279.455 559.938 280.867Z" fill="#A6C8DE"/>
<path d="M201.161 252.006C199.803 253.418 199.803 255.678 201.161 257.091C202.473 258.503 204.69 258.503 206.048 257.091C207.406 255.678 207.406 253.418 206.048 252.006C204.69 250.594 202.473 250.594 201.161 252.006Z" fill="#A6C8DE"/>
</g>
<g style="mix-blend-mode:color-dodge">
<path d="M420.373 410.813H373.263L283.388 317.356H44.897V316.414H283.795L373.625 409.872H420.011L453.635 374.89H544.823L584.194 333.929L584.873 334.588L545.185 375.831H454.042L420.373 410.813Z" fill="#A6C8DE"/>
<path d="M581.977 331.81C583.334 330.444 585.507 330.444 586.864 331.81C588.222 333.222 588.222 335.529 586.864 336.942C585.507 338.307 583.334 338.307 581.977 336.942C580.619 335.529 580.619 333.222 581.977 331.81Z" fill="#A6C8DE"/>
<path d="M45.078 313.306C43.1773 313.306 41.5934 314.907 41.5934 316.885C41.5934 318.862 43.1773 320.463 45.078 320.463C46.9787 320.463 48.5173 318.862 48.5173 316.885C48.5173 314.907 46.9787 313.306 45.078 313.306Z" fill="#A6C8DE"/>
</g>
<g style="mix-blend-mode:color-dodge">
<path d="M375.571 298.853H343.531V297.911H375.164L404.308 267.59H513.326V268.532H404.715L375.571 298.853Z" fill="#A6C8DE"/>
<path d="M513.145 264.483C515.046 264.483 516.629 266.084 516.629 268.061C516.629 270.038 515.046 271.686 513.145 271.686C511.244 271.686 509.706 270.038 509.706 268.061C509.706 266.084 511.244 264.483 513.145 264.483Z" fill="#A6C8DE"/>
<path d="M343.712 294.803C341.766 294.803 340.228 296.404 340.228 298.382C340.228 300.406 341.766 302.007 343.712 302.007C345.613 302.007 347.151 300.406 347.151 298.382C347.151 296.404 345.613 294.803 343.712 294.803Z" fill="#A6C8DE"/>
</g>
<g style="mix-blend-mode:color-dodge">
<path d="M373.444 269.097L328.823 222.674H264.291V221.732H329.231L374.123 268.437L373.444 269.097Z" fill="#A6C8DE"/>
<path d="M376.114 266.083C377.472 267.496 377.472 269.756 376.114 271.168C374.757 272.581 372.584 272.581 371.227 271.168C369.869 269.756 369.869 267.496 371.227 266.083C372.584 264.671 374.757 264.671 376.114 266.083Z" fill="#A6C8DE"/>
<path d="M264.472 218.625C262.571 218.625 261.032 220.226 261.032 222.203C261.032 224.18 262.571 225.781 264.472 225.781C266.372 225.781 267.956 224.18 267.956 222.203C267.956 220.226 266.372 218.625 264.472 218.625Z" fill="#A6C8DE"/>
</g>
<g style="mix-blend-mode:color-dodge">
<path d="M343.576 273.758L312.396 241.318H255.33V240.377H312.758L344.21 273.099L343.576 273.758Z" fill="#A6C8DE"/>
<path d="M346.201 270.745C347.559 272.157 347.559 274.464 346.201 275.829C344.889 277.242 342.671 277.242 341.314 275.829C339.956 274.464 339.956 272.157 341.314 270.745C342.671 269.332 344.889 269.332 346.201 270.745Z" fill="#A6C8DE"/>
<path d="M255.511 237.269C253.61 237.269 252.072 238.87 252.072 240.847C252.072 242.825 253.61 244.473 255.511 244.473C257.412 244.473 258.95 242.825 258.95 240.847C258.95 238.87 257.412 237.269 255.511 237.269Z" fill="#A6C8DE"/>
</g>
<g style="mix-blend-mode:color-dodge">
<path d="M87.6624 410.483H47.8838V409.542H87.6624V410.483Z" fill="#A6C8DE"/>
<path d="M87.4813 406.387C89.382 406.387 90.9207 408.035 90.9207 410.012C90.9207 411.99 89.382 413.591 87.4813 413.591C85.5806 413.591 84.042 411.99 84.042 410.012C84.042 408.035 85.5806 406.387 87.4813 406.387Z" fill="#A6C8DE"/>
<path d="M48.0647 406.387C46.164 406.387 44.6254 408.035 44.6254 410.012C44.6254 411.99 46.164 413.591 48.0647 413.591C49.9654 413.591 51.504 411.99 51.504 410.012C51.504 408.035 49.9654 406.387 48.0647 406.387Z" fill="#A6C8DE"/>
</g>
<g style="mix-blend-mode:color-dodge">
<path d="M321.447 415.709L281.306 373.948H152.512V373.006H281.713L322.126 415.05L321.447 415.709Z" fill="#A6C8DE"/>
<path d="M324.117 412.696C325.475 414.109 325.475 416.369 324.117 417.781C322.759 419.194 320.587 419.194 319.229 417.781C317.872 416.369 317.872 414.109 319.229 412.696C320.587 411.284 322.759 411.284 324.117 412.696Z" fill="#A6C8DE"/>
<path d="M152.693 369.852C150.792 369.852 149.254 371.5 149.254 373.477C149.254 375.454 150.792 377.055 152.693 377.055C154.594 377.055 156.132 375.454 156.132 373.477C156.132 371.5 154.594 369.852 152.693 369.852Z" fill="#A6C8DE"/>
</g>
<g style="mix-blend-mode:color-dodge">
<path d="M109.792 586.993H22.4961V586.005H109.43L175.954 516.841H252.162L295.516 471.737H377.608V472.679H295.878L252.57 517.783H176.316L109.792 586.993Z" fill="#A6C8DE"/>
<path d="M377.427 468.63C379.373 468.63 380.911 470.23 380.911 472.208C380.911 474.185 379.373 475.786 377.427 475.786C375.526 475.786 373.987 474.185 373.987 472.208C373.987 470.23 375.526 468.63 377.427 468.63Z" fill="#A6C8DE"/>
<path d="M22.6318 582.897C20.7312 582.897 19.1925 584.498 19.1925 586.522C19.1925 588.5 20.7312 590.101 22.6318 590.101C24.5778 590.101 26.1164 588.5 26.1164 586.522C26.1164 584.498 24.5778 582.897 22.6318 582.897Z" fill="#A6C8DE"/>
</g>
<g style="mix-blend-mode:color-dodge">
<path d="M18.8756 481.012L18.1968 480.353L69.8321 426.633H224.15L254.063 457.754H347.74V458.695H253.656L223.788 427.574H70.1941L18.8756 481.012Z" fill="#A6C8DE"/>
<path d="M347.559 454.599C349.46 454.599 350.998 456.247 350.998 458.225C350.998 460.202 349.46 461.803 347.559 461.803C345.658 461.803 344.074 460.202 344.074 458.225C344.074 456.247 345.658 454.599 347.559 454.599Z" fill="#A6C8DE"/>
<path d="M16.2057 477.999C14.8481 479.411 14.8481 481.671 16.2057 483.084C17.5634 484.496 19.7356 484.496 21.0932 483.084C22.4508 481.671 22.4508 479.411 21.0932 477.999C19.7356 476.586 17.5634 476.586 16.2057 477.999Z" fill="#A6C8DE"/>
</g>
<g style="mix-blend-mode:color-dodge">
<path d="M104.587 539.535H32.4519L6.97363 513.075L7.65245 512.369L32.8139 538.594H104.18L157.988 482.613H246.098V483.555H158.395L104.587 539.535Z" fill="#A6C8DE"/>
<path d="M245.917 479.506C247.818 479.506 249.356 481.107 249.356 483.084C249.356 485.061 247.818 486.709 245.917 486.709C244.016 486.709 242.478 485.061 242.478 483.084C242.478 481.107 244.016 479.506 245.917 479.506Z" fill="#A6C8DE"/>
<path d="M9.87006 510.298C8.55768 508.885 6.34021 508.885 4.98258 510.298C3.62495 511.71 3.62495 514.017 4.98258 515.382C6.34021 516.795 8.55768 516.795 9.87006 515.382C11.2277 514.017 11.2277 511.71 9.87006 510.298Z" fill="#A6C8DE"/>
</g>
<g style="mix-blend-mode:color-dodge">
<path d="M84.4041 502.999H47.8838V502.058H84.0421L125.133 459.307H216.185V460.249H125.495L84.4041 502.999Z" fill="#A6C8DE"/>
<path d="M216.004 456.153C217.95 456.153 219.489 457.801 219.489 459.778C219.489 461.756 217.95 463.356 216.004 463.356C214.103 463.356 212.565 461.756 212.565 459.778C212.565 457.801 214.103 456.153 216.004 456.153Z" fill="#A6C8DE"/>
<path d="M48.0647 498.95C46.164 498.95 44.6254 500.551 44.6254 502.528C44.6254 504.506 46.164 506.154 48.0647 506.154C49.9654 506.154 51.504 504.506 51.504 502.528C51.504 500.551 49.9654 498.95 48.0647 498.95Z" fill="#A6C8DE"/>
</g>
<g style="mix-blend-mode:color-dodge">
<path d="M9.87002 411.048L9.23645 410.389L75.8057 341.132H250.578V342.073H76.1678L9.87002 411.048Z" fill="#A6C8DE"/>
<path d="M250.397 337.977C252.298 337.977 253.837 339.625 253.837 341.603C253.837 343.58 252.298 345.181 250.397 345.181C248.497 345.181 246.958 343.58 246.958 341.603C246.958 339.625 248.497 337.977 250.397 337.977Z" fill="#A6C8DE"/>
<path d="M7.24528 408.035C5.88764 409.448 5.88764 411.708 7.24528 413.12C8.60291 414.532 10.7751 414.532 12.1328 413.12C13.4904 411.708 13.4904 409.448 12.1328 408.035C10.7751 406.623 8.60291 406.623 7.24528 408.035Z" fill="#A6C8DE"/>
</g>
<g style="mix-blend-mode:color-dodge">
<path d="M393.809 380.162H365.751L283.931 295.038H29.963V294.096H284.338L366.158 379.22H393.401L425.577 345.792H513.733L539.664 318.767L540.343 319.473L514.14 346.734H425.939L393.809 380.162Z" fill="#A6C8DE"/>
<path d="M537.446 316.696C538.804 315.283 540.976 315.283 542.334 316.696C543.691 318.108 543.691 320.415 542.334 321.78C540.976 323.193 538.804 323.193 537.446 321.78C536.089 320.415 536.089 318.108 537.446 316.696Z" fill="#A6C8DE"/>
<path d="M30.144 290.942C28.1981 290.942 26.6594 292.543 26.6594 294.567C26.6594 296.545 28.1981 298.145 30.144 298.145C32.0447 298.145 33.5834 296.545 33.5834 294.567C33.5834 292.543 32.0447 290.942 30.144 290.942Z" fill="#A6C8DE"/>
</g>
<g style="mix-blend-mode:color-dodge">
<path d="M391.184 354.126H361.271L282.257 271.921H16.5225V270.933H282.619L361.678 353.185H390.822L413.585 329.455H507.035L530.703 304.784L531.382 305.491L507.397 330.397H413.992L391.184 354.126Z" fill="#A6C8DE"/>
<path d="M528.486 302.713C529.798 301.301 532.016 301.301 533.373 302.713C534.731 304.125 534.731 306.385 533.373 307.798C532.016 309.21 529.798 309.21 528.486 307.798C527.128 306.385 527.128 304.125 528.486 302.713Z" fill="#A6C8DE"/>
<path d="M16.6582 267.825C14.7575 267.825 13.2189 269.426 13.2189 271.403C13.2189 273.428 14.7575 275.029 16.6582 275.029C18.6042 275.029 20.1428 273.428 20.1428 271.403C20.1428 269.426 18.6042 267.825 16.6582 267.825Z" fill="#A6C8DE"/>
</g>
<g style="mix-blend-mode:color-dodge">
<path d="M389.51 320.84L388.876 320.181L419.559 288.259H515.136V289.201H419.966L389.51 320.84Z" fill="#A6C8DE"/>
<path d="M514.955 285.105C516.856 285.105 518.394 286.752 518.394 288.73C518.394 290.707 516.856 292.308 514.955 292.308C513.054 292.308 511.516 290.707 511.516 288.73C511.516 286.752 513.054 285.105 514.955 285.105Z" fill="#A6C8DE"/>
<path d="M386.885 317.826C385.527 319.239 385.527 321.546 386.885 322.911C388.243 324.324 390.415 324.324 391.772 322.911C393.13 321.546 393.13 319.239 391.772 317.826C390.415 316.461 388.243 316.461 386.885 317.826Z" fill="#A6C8DE"/>
</g>
<g style="mix-blend-mode:color-dodge">
<path d="M310.36 108.83H216.321L144.502 34.1109L145.136 33.4518L216.683 107.841H310.36V108.83Z" fill="#A6C8DE"/>
<path d="M310.179 104.734C312.079 104.734 313.663 106.334 313.663 108.359C313.663 110.336 312.079 111.937 310.179 111.937C308.278 111.937 306.739 110.336 306.739 108.359C306.739 106.334 308.278 104.734 310.179 104.734Z" fill="#A6C8DE"/>
<path d="M147.398 31.38C146.041 29.9676 143.869 29.9676 142.511 31.38C141.153 32.7454 141.153 35.0524 142.511 36.4649C143.869 37.8773 146.041 37.8773 147.398 36.4649C148.756 35.0524 148.756 32.7454 147.398 31.38Z" fill="#A6C8DE"/>
</g>
<g style="mix-blend-mode:color-dodge">
<path d="M184.326 109.772L138.212 61.7955H10.9109V60.8068H138.574L184.959 109.066L184.326 109.772Z" fill="#A6C8DE"/>
<path d="M186.951 106.758C188.308 108.171 188.308 110.431 186.951 111.843C185.638 113.256 183.421 113.256 182.063 111.843C180.751 110.431 180.751 108.171 182.063 106.758C183.421 105.346 185.638 105.346 186.951 106.758Z" fill="#A6C8DE"/>
<path d="M11.0466 57.6992C9.14595 57.6992 7.6073 59.3 7.6073 61.2774C7.6073 63.302 9.14595 64.9028 11.0466 64.9028C12.9926 64.9028 14.5312 63.302 14.5312 61.2774C14.5312 59.3 12.9926 57.6992 11.0466 57.6992Z" fill="#A6C8DE"/>
</g>
</svg>
