<svg width="588" height="615" viewBox="0 0 588 615" fill="none" xmlns="http://www.w3.org/2000/svg">
<g style="mix-blend-mode:color-dodge">
<path d="M46.4536 464.651H186.29L245.211 525.999H349.161L430.664 610.793L430.03 611.453L348.753 526.941H244.849L185.883 465.593H46.4536V464.651Z" fill="white"/>
<path d="M46.6346 468.747C44.734 468.747 43.1953 467.099 43.1953 465.122C43.1953 463.144 44.734 461.544 46.6346 461.544C48.5353 461.544 50.074 463.144 50.074 465.122C50.074 467.099 48.5353 468.747 46.6346 468.747Z" fill="white"/>
<path d="M427.768 613.524C429.125 614.936 431.298 614.936 432.655 613.524C434.013 612.158 434.013 609.851 432.655 608.439C431.298 607.027 429.125 607.027 427.768 608.439C426.41 609.851 426.41 612.158 427.768 613.524Z" fill="white"/>
</g>
<g style="mix-blend-mode:color-dodge">
<path d="M478.453 3.1073H572.853V4.09602H478.815L426.817 58.1931H322.913L263.947 119.541H121.033L68.4021 174.297L67.7686 173.591L120.671 118.552H263.585L322.506 57.2515H426.455L478.453 3.1073Z" fill="white"/>
<path d="M70.6647 176.369C69.3071 177.781 67.1349 177.781 65.7773 176.369C64.4196 174.956 64.4196 172.649 65.7773 171.284C67.1349 169.871 69.3071 169.871 70.6647 171.284C72.0223 172.649 72.0223 174.956 70.6647 176.369Z" fill="white"/>
<path d="M572.672 7.20341C574.573 7.20341 576.157 5.60262 576.157 3.62518C576.157 1.60066 574.573 -0.00012207 572.672 -0.00012207C570.772 -0.00012207 569.233 1.60066 569.233 3.62518C569.233 5.60262 570.772 7.20341 572.672 7.20341Z" fill="white"/>
</g>
<g style="mix-blend-mode:color-dodge">
<path d="M3.64285 392.852L51.2506 442.382H214.936L263.901 493.324H329.656L355.994 465.923H555.249V466.864H356.356L330.018 494.266H263.494L214.574 443.37H50.8885L3.00928 393.558L3.64285 392.852Z" fill="white"/>
<path d="M1.01823 395.864C-0.339408 394.452 -0.339408 392.192 1.01823 390.78C2.37586 389.367 4.54804 389.367 5.90567 390.78C7.26331 392.192 7.26331 394.452 5.90567 395.864C4.54804 397.277 2.37586 397.277 1.01823 395.864Z" fill="white"/>
<path d="M555.068 469.972C556.969 469.972 558.508 468.371 558.508 466.393C558.508 464.416 556.969 462.815 555.068 462.815C553.168 462.815 551.584 464.416 551.584 466.393C551.584 468.371 553.168 469.972 555.068 469.972Z" fill="white"/>
</g>
<g style="mix-blend-mode:color-dodge">
<path d="M133.885 131.829H189.231L230.141 174.391H310.287L350.156 215.871H469.719V216.859H349.794L309.925 175.333H229.734L188.824 132.771H134.293L78.0865 191.247L77.4077 190.588L133.885 131.829Z" fill="white"/>
<path d="M80.3039 193.318C78.9915 194.731 76.7741 194.731 75.4164 193.318C74.0588 191.953 74.0588 189.646 75.4164 188.234C76.7741 186.821 78.9915 186.821 80.3039 188.234C81.6616 189.646 81.6616 191.953 80.3039 193.318Z" fill="white"/>
<path d="M469.538 219.967C471.483 219.967 473.022 218.366 473.022 216.389C473.022 214.364 471.483 212.763 469.538 212.763C467.637 212.763 466.098 214.364 466.098 216.389C466.098 218.366 467.637 219.967 469.538 219.967Z" fill="white"/>
</g>
<g style="mix-blend-mode:color-dodge">
<path d="M9.61673 369.593L56.1383 417.946H211.949L264.082 472.184H311.69L349.93 432.447H499.949V433.389H350.292L312.097 473.126H263.675L211.542 418.888H55.731L8.98315 370.252L9.61673 369.593Z" fill="white"/>
<path d="M499.768 429.293C501.668 429.293 503.207 430.94 503.207 432.918C503.207 434.895 501.668 436.496 499.768 436.496C497.867 436.496 496.283 434.895 496.283 432.918C496.283 430.94 497.867 429.293 499.768 429.293Z" fill="white"/>
<path d="M11.8794 367.521C10.5217 366.109 8.34949 366.109 6.99186 367.521C5.63422 368.886 5.63422 371.193 6.99186 372.606C8.34949 373.971 10.5217 373.971 11.8794 372.606C13.237 371.193 13.237 368.886 11.8794 367.521Z" fill="white"/>
</g>
<g style="mix-blend-mode:color-dodge">
<path d="M140.945 179.241H208.646L287.117 260.881H448.902L487.911 220.249L488.59 220.955L449.309 261.822H286.71L208.284 180.229H141.307L102.841 220.249H33.4204V219.307H102.433L140.945 179.241Z" fill="white"/>
<path d="M33.6015 223.356C31.7008 223.356 30.1621 221.756 30.1621 219.778C30.1621 217.801 31.7008 216.153 33.6015 216.153C35.5022 216.153 37.0861 217.801 37.0861 219.778C37.0861 221.756 35.5022 223.356 33.6015 223.356Z" fill="white"/>
<path d="M490.581 223.262C491.939 221.85 491.939 219.59 490.581 218.177C489.223 216.765 487.051 216.765 485.694 218.177C484.336 219.59 484.336 221.85 485.694 223.262C487.051 224.675 489.223 224.675 490.581 223.262Z" fill="white"/>
</g>
<g style="mix-blend-mode:color-dodge">
<path d="M126.011 162.527H163.255V163.468H126.373L84.0148 207.584L83.3359 206.925L126.011 162.527Z" fill="white"/>
<path d="M86.2323 209.656C84.8747 211.068 82.7025 211.068 81.3449 209.656C79.9873 208.243 79.9873 205.983 81.3449 204.571C82.7025 203.158 84.8747 203.158 86.2323 204.571C87.59 205.983 87.59 208.243 86.2323 209.656Z" fill="white"/>
<path d="M163.074 166.623C164.975 166.623 166.559 165.022 166.559 162.998C166.559 161.02 164.975 159.419 163.074 159.419C161.174 159.419 159.635 161.02 159.635 162.998C159.635 165.022 161.174 166.623 163.074 166.623Z" fill="white"/>
</g>
<g style="mix-blend-mode:color-dodge">
<path d="M9.61673 340.826L59.4871 392.663H200.002L247.067 441.675H325.176L365.905 399.301H534.795L584.71 451.233L584.077 451.939L534.433 400.243H366.267L325.538 442.617H246.705L199.595 393.651H59.1251L8.98315 341.485L9.61673 340.826Z" fill="white"/>
<path d="M6.99186 343.839C5.63422 342.426 5.63422 340.119 6.99186 338.754C8.34949 337.342 10.5217 337.342 11.8794 338.754C13.237 340.119 13.237 342.426 11.8794 343.839C10.5217 345.204 8.34949 345.204 6.99186 343.839Z" fill="white"/>
<path d="M581.859 454.011C583.171 455.423 585.389 455.423 586.747 454.011C588.059 452.598 588.059 450.291 586.747 448.926C585.389 447.513 583.171 447.513 581.859 448.926C580.501 450.291 580.501 452.598 581.859 454.011Z" fill="white"/>
</g>
<g style="mix-blend-mode:color-dodge">
<path d="M30.5694 330.703L71.0722 372.841H197.015L246.116 423.972H322.189L384.097 359.564L384.731 360.223L322.551 424.914H245.754L196.608 373.83H70.7102L29.8906 331.362L30.5694 330.703Z" fill="white"/>
<path d="M27.8993 333.716C26.5417 332.304 26.5417 330.044 27.8993 328.632C29.257 327.219 31.4292 327.219 32.7868 328.632C34.1445 330.044 34.1445 332.304 32.7868 333.716C31.4292 335.129 29.257 335.129 27.8993 333.716Z" fill="white"/>
<path d="M386.722 362.577C388.08 361.165 388.08 358.905 386.722 357.492C385.364 356.08 383.192 356.08 381.834 357.492C380.477 358.905 380.477 361.165 381.834 362.577C383.192 363.99 385.364 363.99 386.722 362.577Z" fill="white"/>
</g>
<g style="mix-blend-mode:color-dodge">
<path d="M167.464 203.723H214.619L304.449 297.228H542.985V298.17H304.087L214.257 204.712H167.871L134.202 239.694H43.0595L3.64285 280.655L3.00928 279.996L42.6522 238.752H133.84L167.464 203.723Z" fill="white"/>
<path d="M5.90567 282.727C4.54804 284.139 2.37586 284.139 1.01823 282.727C-0.339408 281.361 -0.339408 279.054 1.01823 277.642C2.37586 276.276 4.54804 276.276 5.90567 277.642C7.26331 279.054 7.26331 281.361 5.90567 282.727Z" fill="white"/>
<path d="M542.804 301.277C544.705 301.277 546.244 299.676 546.244 297.699C546.244 295.721 544.705 294.073 542.804 294.073C540.904 294.073 539.32 295.721 539.32 297.699C539.32 299.676 540.904 301.277 542.804 301.277Z" fill="white"/>
</g>
<g style="mix-blend-mode:color-dodge">
<path d="M212.311 315.684H244.352V316.673H212.673L183.53 346.994H74.5569V346.005H183.168L212.311 315.684Z" fill="white"/>
<path d="M74.6925 350.101C72.7918 350.101 71.2532 348.5 71.2532 346.523C71.2532 344.498 72.7918 342.897 74.6925 342.897C76.6384 342.897 78.1771 344.498 78.1771 346.523C78.1771 348.5 76.6384 350.101 74.6925 350.101Z" fill="white"/>
<path d="M244.171 319.78C246.071 319.78 247.61 318.179 247.61 316.202C247.61 314.177 246.071 312.577 244.171 312.577C242.27 312.577 240.731 314.177 240.731 316.202C240.731 318.179 242.27 319.78 244.171 319.78Z" fill="white"/>
</g>
<g style="mix-blend-mode:color-dodge">
<path d="M214.393 345.487L259.014 391.91H323.547V392.852H258.652L213.76 346.146L214.393 345.487Z" fill="white"/>
<path d="M211.768 348.5C210.411 347.088 210.411 344.781 211.768 343.415C213.126 342.003 215.298 342.003 216.656 343.415C218.013 344.781 218.013 347.088 216.656 348.5C215.298 349.865 213.126 349.865 211.768 348.5Z" fill="white"/>
<path d="M323.366 395.959C325.312 395.959 326.85 394.358 326.85 392.38C326.85 390.403 325.312 388.802 323.366 388.802C321.465 388.802 319.926 390.403 319.926 392.38C319.926 394.358 321.465 395.959 323.366 395.959Z" fill="white"/>
</g>
<g style="mix-blend-mode:color-dodge">
<path d="M244.306 340.826L275.487 373.218H332.507V374.207H275.079L243.627 341.485L244.306 340.826Z" fill="white"/>
<path d="M241.636 343.839C240.279 342.427 240.279 340.12 241.636 338.707C242.994 337.342 245.166 337.342 246.524 338.707C247.881 340.12 247.881 342.427 246.524 343.839C245.166 345.204 242.994 345.204 241.636 343.839Z" fill="white"/>
<path d="M332.371 377.314C334.272 377.314 335.811 375.714 335.811 373.736C335.811 371.712 334.272 370.111 332.371 370.111C330.425 370.111 328.887 371.712 328.887 373.736C328.887 375.714 330.425 377.314 332.371 377.314Z" fill="white"/>
</g>
<g style="mix-blend-mode:color-dodge">
<path d="M500.22 204.1H539.953V205.041H500.22V204.1Z" fill="white"/>
<path d="M500.401 208.149C498.455 208.149 496.917 206.548 496.917 204.571C496.917 202.593 498.455 200.992 500.401 200.992C502.302 200.992 503.84 202.593 503.84 204.571C503.84 206.548 502.302 208.149 500.401 208.149Z" fill="white"/>
<path d="M539.818 208.149C541.718 208.149 543.257 206.548 543.257 204.571C543.257 202.593 541.718 200.992 539.818 200.992C537.872 200.992 536.333 202.593 536.333 204.571C536.333 206.548 537.872 208.149 539.818 208.149Z" fill="white"/>
</g>
<g style="mix-blend-mode:color-dodge">
<path d="M266.39 198.874L306.531 240.635H435.371V241.577H306.169L265.757 199.533L266.39 198.874Z" fill="white"/>
<path d="M263.766 201.887C262.408 200.475 262.408 198.215 263.766 196.802C265.123 195.39 267.295 195.39 268.653 196.802C270.011 198.215 270.011 200.475 268.653 201.887C267.295 203.299 265.123 203.299 263.766 201.887Z" fill="white"/>
<path d="M435.189 244.732C437.09 244.732 438.629 243.084 438.629 241.107C438.629 239.129 437.09 237.528 435.189 237.528C433.289 237.528 431.705 239.129 431.705 241.107C431.705 243.084 433.289 244.732 435.189 244.732Z" fill="white"/>
</g>
<g style="mix-blend-mode:color-dodge">
<path d="M478.045 27.59H565.386V28.5316H478.453L411.929 97.742H335.675L292.366 142.846H210.229V141.905H291.959L335.313 96.8003H411.521L478.045 27.59Z" fill="white"/>
<path d="M210.411 145.954C208.51 145.954 206.971 144.353 206.971 142.376C206.971 140.398 208.51 138.75 210.411 138.75C212.311 138.75 213.895 140.398 213.895 142.376C213.895 144.353 212.311 145.954 210.411 145.954Z" fill="white"/>
<path d="M565.205 31.6861C567.106 31.6861 568.69 30.0382 568.69 28.0608C568.69 26.0833 567.106 24.4825 565.205 24.4825C563.305 24.4825 561.766 26.0833 561.766 28.0608C561.766 30.0382 563.305 31.6861 565.205 31.6861Z" fill="white"/>
</g>
<g style="mix-blend-mode:color-dodge">
<path d="M569.007 133.571L569.64 134.23L518.05 187.951H363.733L333.819 156.83H240.143V155.888H334.181L364.095 187.009H517.643L569.007 133.571Z" fill="white"/>
<path d="M240.324 159.984C238.423 159.984 236.839 158.336 236.839 156.359C236.839 154.381 238.423 152.781 240.324 152.781C242.224 152.781 243.763 154.381 243.763 156.359C243.763 158.336 242.224 159.984 240.324 159.984Z" fill="white"/>
<path d="M571.677 136.584C572.989 135.172 572.989 132.865 571.677 131.499C570.319 130.087 568.102 130.087 566.789 131.499C565.432 132.865 565.432 135.172 566.789 136.584C568.102 137.997 570.319 137.997 571.677 136.584Z" fill="white"/>
</g>
<g style="mix-blend-mode:color-dodge">
<path d="M483.295 75.0013H555.43L580.863 101.508L580.23 102.168L555.023 75.9901H483.657L429.849 131.97H341.784V130.982H429.487L483.295 75.0013Z" fill="white"/>
<path d="M341.965 135.078C340.019 135.078 338.481 133.477 338.481 131.5C338.481 129.475 340.019 127.874 341.965 127.874C343.866 127.874 345.405 129.475 345.405 131.5C345.405 133.477 343.866 135.078 341.965 135.078Z" fill="white"/>
<path d="M577.967 104.286C579.325 105.652 581.542 105.652 582.855 104.286C584.212 102.874 584.212 100.567 582.855 99.2013C581.542 97.7889 579.325 97.7889 577.967 99.2013C576.61 100.567 576.61 102.874 577.967 104.286Z" fill="white"/>
</g>
<g style="mix-blend-mode:color-dodge">
<path d="M503.479 111.584H539.954V112.526H503.841L462.75 155.276H371.652V154.334H462.342L503.479 111.584Z" fill="white"/>
<path d="M371.833 158.383C369.933 158.383 368.394 156.783 368.394 154.805C368.394 152.828 369.933 151.227 371.833 151.227C373.734 151.227 375.318 152.828 375.318 154.805C375.318 156.783 373.734 158.383 371.833 158.383Z" fill="white"/>
<path d="M539.818 115.633C541.719 115.633 543.257 114.032 543.257 112.055C543.257 110.077 541.719 108.43 539.818 108.43C537.872 108.43 536.333 110.077 536.333 112.055C536.333 114.032 537.872 115.633 539.818 115.633Z" fill="white"/>
</g>
<g style="mix-blend-mode:color-dodge">
<path d="M577.967 203.535L578.646 204.194L512.077 273.452H337.304V272.51H511.669L577.967 203.535Z" fill="white"/>
<path d="M337.485 276.606C335.539 276.606 334 274.958 334 272.981C334 271.003 335.539 269.402 337.485 269.402C339.386 269.402 340.924 271.003 340.924 272.981C340.924 274.958 339.386 276.606 337.485 276.606Z" fill="white"/>
<path d="M580.637 206.548C581.995 205.136 581.995 202.876 580.637 201.463C579.28 200.051 577.107 200.051 575.75 201.463C574.392 202.876 574.392 205.136 575.75 206.548C577.107 207.96 579.28 207.96 580.637 206.548Z" fill="white"/>
</g>
<g style="mix-blend-mode:color-dodge">
<path d="M194.074 234.421H222.086L303.952 319.545H557.919V320.487H303.544L221.724 235.362H194.436L162.305 268.791H74.1042L48.1734 295.769L47.5398 295.109L73.7421 267.849H161.943L194.074 234.421Z" fill="white"/>
<path d="M50.436 297.887C49.0784 299.253 46.9061 299.253 45.5485 297.887C44.1909 296.475 44.1909 294.168 45.5485 292.802C46.9061 291.39 49.0784 291.39 50.436 292.802C51.7936 294.168 51.7936 296.475 50.436 297.887Z" fill="white"/>
<path d="M557.738 323.641C559.639 323.641 561.178 321.993 561.178 320.016C561.178 318.038 559.639 316.437 557.738 316.437C555.838 316.437 554.299 318.038 554.299 320.016C554.299 321.993 555.838 323.641 557.738 323.641Z" fill="white"/>
</g>
<g style="mix-blend-mode:color-dodge">
<path d="M196.699 260.457H226.566L305.626 342.662H571.36V343.651H305.219L226.204 261.399H197.061L174.252 285.128H80.8471L57.1338 309.799L56.5002 309.093L80.4851 284.186H173.89L196.699 260.457Z" fill="white"/>
<path d="M59.3965 311.87C58.0388 313.283 55.8666 313.283 54.5089 311.87C53.1513 310.458 53.1513 308.198 54.5089 306.786C55.8666 305.373 58.0388 305.373 59.3965 306.786C60.7541 308.198 60.7541 310.458 59.3965 311.87Z" fill="white"/>
<path d="M571.179 346.758C573.08 346.758 574.664 345.158 574.664 343.18C574.664 341.156 573.08 339.555 571.179 339.555C569.278 339.555 567.74 341.156 567.74 343.18C567.74 345.158 569.278 346.758 571.179 346.758Z" fill="white"/>
</g>
<g style="mix-blend-mode:color-dodge">
<path d="M198.328 293.744L199.007 294.403L168.279 326.324H72.7466V325.383H167.917L198.328 293.744Z" fill="white"/>
<path d="M72.9274 329.479C70.9815 329.479 69.4429 327.831 69.4429 325.854C69.4429 323.876 70.9815 322.275 72.9274 322.275C74.8281 322.275 76.3668 323.876 76.3668 325.854C76.3668 327.831 74.8281 329.479 72.9274 329.479Z" fill="white"/>
<path d="M200.997 296.757C202.355 295.344 202.355 293.037 200.997 291.625C199.64 290.26 197.422 290.26 196.11 291.625C194.752 293.037 194.752 295.344 196.11 296.757C197.422 298.122 199.64 298.122 200.997 296.757Z" fill="white"/>
</g>
<g style="mix-blend-mode:color-dodge">
<path d="M277.523 505.753H371.561L443.38 580.472L442.701 581.131L371.199 506.742H277.523V505.753Z" fill="white"/>
<path d="M277.659 509.849C275.758 509.849 274.219 508.248 274.219 506.224C274.219 504.247 275.758 502.646 277.659 502.646C279.605 502.646 281.143 504.247 281.143 506.224C281.143 508.248 279.605 509.849 277.659 509.849Z" fill="white"/>
<path d="M440.484 583.203C441.842 584.615 444.014 584.615 445.372 583.203C446.729 581.79 446.729 579.531 445.372 578.118C444.014 576.706 441.842 576.706 440.484 578.118C439.126 579.531 439.126 581.79 440.484 583.203Z" fill="white"/>
</g>
<g style="mix-blend-mode:color-dodge">
<path d="M403.557 504.812L449.671 552.789H576.972V553.777H449.264L402.878 505.518L403.557 504.812Z" fill="white"/>
<path d="M400.886 507.825C399.529 506.413 399.529 504.153 400.886 502.74C402.244 501.328 404.416 501.328 405.774 502.74C407.132 504.153 407.132 506.413 405.774 507.825C404.416 509.238 402.244 509.238 400.886 507.825Z" fill="white"/>
<path d="M576.79 556.884C578.691 556.884 580.275 555.284 580.275 553.259C580.275 551.282 578.691 549.681 576.79 549.681C574.89 549.681 573.351 551.282 573.351 553.259C573.351 555.284 574.89 556.884 576.79 556.884Z" fill="white"/>
</g>
</svg>
